<?xml version="1.0" encoding="UTF-8"?><svg xmlns="http://www.w3.org/2000/svg" xmlns:xlink="http://www.w3.org/1999/xlink" fill-opacity="1" color-rendering="auto" color-interpolation="auto" text-rendering="auto" stroke="black" stroke-linecap="square" width="813" stroke-miterlimit="10" shape-rendering="auto" stroke-opacity="1" fill="black" stroke-dasharray="none" font-weight="normal" stroke-width="1" height="287" font-family="'Dialog'" font-style="normal" stroke-linejoin="miter" font-size="12px" stroke-dashoffset="0" image-rendering="auto">
  <!--Generated by ySVG 2.5-->
  <defs id="genericDefs"/>
  <g>
    <defs id="defs1">
      <clipPath clipPathUnits="userSpaceOnUse" id="clipPath1">
        <path d="M0 0 L813 0 L813 287 L0 287 L0 0 Z"/>
      </clipPath>
      <clipPath clipPathUnits="userSpaceOnUse" id="clipPath2">
        <path d="M-256 -61 L557 -61 L557 226 L-256 226 L-256 -61 Z"/>
      </clipPath>
    </defs>
    <g fill="white" text-rendering="geometricPrecision" shape-rendering="geometricPrecision" transform="translate(256,61)" stroke="white">
      <rect x="-256" width="813" height="287" y="-61" clip-path="url(#clipPath2)" stroke="none"/>
    </g>
    <g fill="rgb(255,102,0)" text-rendering="geometricPrecision" shape-rendering="geometricPrecision" transform="matrix(1,0,0,1,256,61)" stroke="rgb(255,102,0)">
      <circle r="15" clip-path="url(#clipPath2)" cx="69.0073" cy="19.058" stroke="none"/>
    </g>
    <g text-rendering="geometricPrecision" stroke-miterlimit="1.45" shape-rendering="geometricPrecision" transform="matrix(1,0,0,1,256,61)" stroke-linecap="butt">
      <circle fill="none" r="15" clip-path="url(#clipPath2)" cx="69.0073" cy="19.058"/>
      <text x="65.6704" xml:space="preserve" y="23.7719" clip-path="url(#clipPath2)" font-family="sans-serif" stroke="none">8</text>
    </g>
    <g fill="rgb(255,102,0)" text-rendering="geometricPrecision" shape-rendering="geometricPrecision" transform="matrix(1,0,0,1,256,61)" stroke="rgb(255,102,0)">
      <circle r="15" clip-path="url(#clipPath2)" cx="156.2393" cy="-22.35" stroke="none"/>
    </g>
    <g text-rendering="geometricPrecision" stroke-miterlimit="1.45" shape-rendering="geometricPrecision" transform="matrix(1,0,0,1,256,61)" stroke-linecap="butt">
      <circle fill="none" r="15" clip-path="url(#clipPath2)" cx="156.2393" cy="-22.35"/>
      <text x="152.9024" xml:space="preserve" y="-17.6361" clip-path="url(#clipPath2)" font-family="sans-serif" stroke="none">6</text>
    </g>
    <g fill="rgb(255,102,0)" text-rendering="geometricPrecision" shape-rendering="geometricPrecision" transform="matrix(1,0,0,1,256,61)" stroke="rgb(255,102,0)">
      <circle r="15" clip-path="url(#clipPath2)" cx="246.6713" cy="35.474" stroke="none"/>
    </g>
    <g text-rendering="geometricPrecision" stroke-miterlimit="1.45" shape-rendering="geometricPrecision" transform="matrix(1,0,0,1,256,61)" stroke-linecap="butt">
      <circle fill="none" r="15" clip-path="url(#clipPath2)" cx="246.6713" cy="35.474"/>
      <text x="238.3305" xml:space="preserve" y="40.1879" clip-path="url(#clipPath2)" font-family="sans-serif" stroke="none">1,5</text>
    </g>
    <g fill="rgb(255,204,0)" text-rendering="geometricPrecision" shape-rendering="geometricPrecision" transform="matrix(1,0,0,1,256,61)" stroke="rgb(255,204,0)">
      <circle r="15" clip-path="url(#clipPath2)" cx="113.6793" cy="184.53" stroke="none"/>
    </g>
    <g text-rendering="geometricPrecision" stroke-miterlimit="1.45" shape-rendering="geometricPrecision" transform="matrix(1,0,0,1,256,61)" stroke-linecap="butt">
      <circle fill="none" r="15" clip-path="url(#clipPath2)" cx="113.6793" cy="184.53"/>
      <text x="105.3385" xml:space="preserve" y="189.2439" clip-path="url(#clipPath2)" font-family="sans-serif" stroke="none">4,9</text>
    </g>
    <g fill="rgb(255,204,0)" text-rendering="geometricPrecision" shape-rendering="geometricPrecision" transform="matrix(1,0,0,1,256,61)" stroke="rgb(255,204,0)">
      <circle r="15" clip-path="url(#clipPath2)" cx="47.4393" cy="112.146" stroke="none"/>
    </g>
    <g text-rendering="geometricPrecision" stroke-miterlimit="1.45" shape-rendering="geometricPrecision" transform="matrix(1,0,0,1,256,61)" stroke-linecap="butt">
      <circle fill="none" r="15" clip-path="url(#clipPath2)" cx="47.4393" cy="112.146"/>
      <text x="35.7616" xml:space="preserve" y="116.8599" clip-path="url(#clipPath2)" font-family="sans-serif" stroke="none">7,10</text>
    </g>
    <g fill="rgb(255,102,0)" text-rendering="geometricPrecision" shape-rendering="geometricPrecision" transform="matrix(1,0,0,1,256,61)" stroke="rgb(255,102,0)">
      <circle r="15" clip-path="url(#clipPath2)" cx="253.0713" cy="118.13" stroke="none"/>
    </g>
    <g text-rendering="geometricPrecision" stroke-miterlimit="1.45" shape-rendering="geometricPrecision" transform="matrix(1,0,0,1,256,61)" stroke-linecap="butt">
      <circle fill="none" r="15" clip-path="url(#clipPath2)" cx="253.0713" cy="118.13"/>
      <text x="249.7344" xml:space="preserve" y="122.8439" clip-path="url(#clipPath2)" font-family="sans-serif" stroke="none">2</text>
    </g>
    <g fill="rgb(255,204,0)" text-rendering="geometricPrecision" shape-rendering="geometricPrecision" transform="matrix(1,0,0,1,256,61)" stroke="rgb(255,204,0)">
      <circle r="15" clip-path="url(#clipPath2)" cx="202.0633" cy="189.138" stroke="none"/>
    </g>
    <g text-rendering="geometricPrecision" stroke-miterlimit="1.45" shape-rendering="geometricPrecision" transform="matrix(1,0,0,1,256,61)" stroke-linecap="butt">
      <circle fill="none" r="15" clip-path="url(#clipPath2)" cx="202.0633" cy="189.138"/>
      <text x="198.7264" xml:space="preserve" y="193.8519" clip-path="url(#clipPath2)" font-family="sans-serif" stroke="none">3</text>
    </g>
    <g fill="rgb(255,102,0)" text-rendering="geometricPrecision" shape-rendering="geometricPrecision" transform="matrix(1,0,0,1,256,61)" stroke="rgb(255,102,0)">
      <circle r="15" clip-path="url(#clipPath2)" cx="-203.966" cy="10.878" stroke="none"/>
    </g>
    <g text-rendering="geometricPrecision" stroke-miterlimit="1.45" shape-rendering="geometricPrecision" transform="matrix(1,0,0,1,256,61)" stroke-linecap="butt">
      <circle fill="none" r="15" clip-path="url(#clipPath2)" cx="-203.966" cy="10.878"/>
    </g>
    <g fill="rgb(255,102,0)" text-rendering="geometricPrecision" shape-rendering="geometricPrecision" transform="matrix(1,0,0,1,256,61)" stroke="rgb(255,102,0)">
      <circle r="15" clip-path="url(#clipPath2)" cx="-116.734" cy="-30.53" stroke="none"/>
    </g>
    <g text-rendering="geometricPrecision" stroke-miterlimit="1.45" shape-rendering="geometricPrecision" transform="matrix(1,0,0,1,256,61)" stroke-linecap="butt">
      <circle fill="none" r="15" clip-path="url(#clipPath2)" cx="-116.734" cy="-30.53"/>
      <text x="-120.0709" xml:space="preserve" y="-25.8161" clip-path="url(#clipPath2)" font-family="sans-serif" stroke="none">6</text>
    </g>
    <g fill="rgb(255,102,0)" text-rendering="geometricPrecision" shape-rendering="geometricPrecision" transform="matrix(1,0,0,1,256,61)" stroke="rgb(255,102,0)">
      <circle r="15" clip-path="url(#clipPath2)" cx="-26.302" cy="27.294" stroke="none"/>
    </g>
    <g text-rendering="geometricPrecision" stroke-miterlimit="1.45" shape-rendering="geometricPrecision" transform="matrix(1,0,0,1,256,61)" stroke-linecap="butt">
      <circle fill="none" r="15" clip-path="url(#clipPath2)" cx="-26.302" cy="27.294"/>
      <text x="-34.6428" xml:space="preserve" y="32.0079" clip-path="url(#clipPath2)" font-family="sans-serif" stroke="none">1,5</text>
    </g>
    <g fill="rgb(255,204,0)" text-rendering="geometricPrecision" shape-rendering="geometricPrecision" transform="matrix(1,0,0,1,256,61)" stroke="rgb(255,204,0)">
      <circle r="15" clip-path="url(#clipPath2)" cx="-159.294" cy="176.35" stroke="none"/>
    </g>
    <g text-rendering="geometricPrecision" stroke-miterlimit="1.45" shape-rendering="geometricPrecision" transform="matrix(1,0,0,1,256,61)" stroke-linecap="butt">
      <circle fill="none" r="15" clip-path="url(#clipPath2)" cx="-159.294" cy="176.35"/>
      <text x="-162.6309" xml:space="preserve" y="181.0639" clip-path="url(#clipPath2)" font-family="sans-serif" stroke="none">4</text>
    </g>
    <g fill="rgb(255,204,0)" text-rendering="geometricPrecision" shape-rendering="geometricPrecision" transform="matrix(1,0,0,1,256,61)" stroke="rgb(255,204,0)">
      <circle r="15" clip-path="url(#clipPath2)" cx="-225.534" cy="103.966" stroke="none"/>
    </g>
    <g text-rendering="geometricPrecision" stroke-miterlimit="1.45" shape-rendering="geometricPrecision" transform="matrix(1,0,0,1,256,61)" stroke-linecap="butt">
      <circle fill="none" r="15" clip-path="url(#clipPath2)" cx="-225.534" cy="103.966"/>
      <text x="-228.8709" xml:space="preserve" y="108.6799" clip-path="url(#clipPath2)" font-family="sans-serif" stroke="none">7</text>
    </g>
    <g fill="rgb(255,102,0)" text-rendering="geometricPrecision" shape-rendering="geometricPrecision" transform="matrix(1,0,0,1,256,61)" stroke="rgb(255,102,0)">
      <circle r="15" clip-path="url(#clipPath2)" cx="-19.902" cy="109.95" stroke="none"/>
    </g>
    <g text-rendering="geometricPrecision" stroke-miterlimit="1.45" shape-rendering="geometricPrecision" transform="matrix(1,0,0,1,256,61)" stroke-linecap="butt">
      <circle fill="none" r="15" clip-path="url(#clipPath2)" cx="-19.902" cy="109.95"/>
      <text x="-28.2428" xml:space="preserve" y="114.6639" clip-path="url(#clipPath2)" font-family="sans-serif" stroke="none">2,8</text>
    </g>
    <g fill="rgb(255,204,0)" text-rendering="geometricPrecision" shape-rendering="geometricPrecision" transform="matrix(1,0,0,1,256,61)" stroke="rgb(255,204,0)">
      <circle r="15" clip-path="url(#clipPath2)" cx="-70.91" cy="180.958" stroke="none"/>
    </g>
    <g text-rendering="geometricPrecision" stroke-miterlimit="1.45" shape-rendering="geometricPrecision" transform="matrix(1,0,0,1,256,61)" stroke-linecap="butt">
      <circle fill="none" r="15" clip-path="url(#clipPath2)" cx="-70.91" cy="180.958"/>
      <text x="-74.2469" xml:space="preserve" y="185.6719" clip-path="url(#clipPath2)" font-family="sans-serif" stroke="none">3</text>
    </g>
    <g fill="rgb(255,102,0)" text-rendering="geometricPrecision" shape-rendering="geometricPrecision" transform="matrix(1,0,0,1,256,61)" stroke="rgb(255,102,0)">
      <circle r="15" clip-path="url(#clipPath2)" cx="341.9807" cy="25.042" stroke="none"/>
    </g>
    <g text-rendering="geometricPrecision" stroke-miterlimit="1.45" shape-rendering="geometricPrecision" transform="matrix(1,0,0,1,256,61)" stroke-linecap="butt">
      <circle fill="none" r="15" clip-path="url(#clipPath2)" cx="341.9807" cy="25.042"/>
    </g>
    <g fill="rgb(255,102,0)" text-rendering="geometricPrecision" shape-rendering="geometricPrecision" transform="matrix(1,0,0,1,256,61)" stroke="rgb(255,102,0)">
      <circle r="15" clip-path="url(#clipPath2)" cx="429.2127" cy="-16.366" stroke="none"/>
    </g>
    <g text-rendering="geometricPrecision" stroke-miterlimit="1.45" shape-rendering="geometricPrecision" transform="matrix(1,0,0,1,256,61)" stroke-linecap="butt">
      <circle fill="none" r="15" clip-path="url(#clipPath2)" cx="429.2127" cy="-16.366"/>
    </g>
    <g fill="rgb(255,102,0)" text-rendering="geometricPrecision" shape-rendering="geometricPrecision" transform="matrix(1,0,0,1,256,61)" stroke="rgb(255,102,0)">
      <circle r="15" clip-path="url(#clipPath2)" cx="519.6447" cy="41.458" stroke="none"/>
    </g>
    <g text-rendering="geometricPrecision" stroke-miterlimit="1.45" shape-rendering="geometricPrecision" transform="matrix(1,0,0,1,256,61)" stroke-linecap="butt">
      <circle fill="none" r="15" clip-path="url(#clipPath2)" cx="519.6447" cy="41.458"/>
    </g>
    <g fill="rgb(255,204,0)" text-rendering="geometricPrecision" shape-rendering="geometricPrecision" transform="matrix(1,0,0,1,256,61)" stroke="rgb(255,204,0)">
      <circle r="15" clip-path="url(#clipPath2)" cx="386.6527" cy="190.514" stroke="none"/>
    </g>
    <g text-rendering="geometricPrecision" stroke-miterlimit="1.45" shape-rendering="geometricPrecision" transform="matrix(1,0,0,1,256,61)" stroke-linecap="butt">
      <circle fill="none" r="15" clip-path="url(#clipPath2)" cx="386.6527" cy="190.514"/>
    </g>
    <g fill="rgb(255,204,0)" text-rendering="geometricPrecision" shape-rendering="geometricPrecision" transform="matrix(1,0,0,1,256,61)" stroke="rgb(255,204,0)">
      <circle r="15" clip-path="url(#clipPath2)" cx="320.4127" cy="118.13" stroke="none"/>
    </g>
    <g text-rendering="geometricPrecision" stroke-miterlimit="1.45" shape-rendering="geometricPrecision" transform="matrix(1,0,0,1,256,61)" stroke-linecap="butt">
      <circle fill="none" r="15" clip-path="url(#clipPath2)" cx="320.4127" cy="118.13"/>
    </g>
    <g fill="rgb(255,102,0)" text-rendering="geometricPrecision" shape-rendering="geometricPrecision" transform="matrix(1,0,0,1,256,61)" stroke="rgb(255,102,0)">
      <circle r="15" clip-path="url(#clipPath2)" cx="526.0447" cy="124.114" stroke="none"/>
    </g>
    <g text-rendering="geometricPrecision" stroke-miterlimit="1.45" shape-rendering="geometricPrecision" transform="matrix(1,0,0,1,256,61)" stroke-linecap="butt">
      <circle fill="none" r="15" clip-path="url(#clipPath2)" cx="526.0447" cy="124.114"/>
    </g>
    <g fill="rgb(255,204,0)" text-rendering="geometricPrecision" shape-rendering="geometricPrecision" transform="matrix(1,0,0,1,256,61)" stroke="rgb(255,204,0)">
      <circle r="15" clip-path="url(#clipPath2)" cx="475.0367" cy="195.122" stroke="none"/>
    </g>
    <g text-rendering="geometricPrecision" stroke-miterlimit="1.45" shape-rendering="geometricPrecision" transform="matrix(1,0,0,1,256,61)" stroke-linecap="butt">
      <circle fill="none" r="15" clip-path="url(#clipPath2)" cx="475.0367" cy="195.122"/>
    </g>
    <g stroke-linecap="butt" transform="matrix(1,0,0,1,256,61)" fill="teal" text-rendering="geometricPrecision" shape-rendering="geometricPrecision" stroke-dasharray="12,4" stroke="teal" stroke-width="2" stroke-miterlimit="1.45">
      <path fill="none" d="M80.5948 9.5043 L90.0083 1.743 L106.0953 -8.342 L125.4463 -15.079 L141.6548 -18.9062" clip-path="url(#clipPath2)"/>
    </g>
    <g stroke-linecap="butt" transform="matrix(1,0,0,1,256,61)" fill="red" text-rendering="geometricPrecision" shape-rendering="geometricPrecision" stroke="red" stroke-miterlimit="1.45">
      <path fill="none" d="M82.5581 12.6256 L135.4614 -12.487" clip-path="url(#clipPath2)"/>
      <path d="M142.6885 -15.9176 L129.7038 -15.2886 L134.5581 -12.0582 L133.992 -6.2547 Z" clip-path="url(#clipPath2)" stroke="none"/>
    </g>
    <g stroke-linecap="butt" transform="matrix(1,0,0,1,256,61)" fill="teal" text-rendering="geometricPrecision" shape-rendering="geometricPrecision" stroke-dasharray="12,4" stroke="teal" stroke-width="2" stroke-miterlimit="1.45">
      <path fill="none" d="M170.5495 -17.7914 L190.7183 -11.3665 L202.3407 -6.7007 L211.6313 -1.682 L219.65 4.3672 L227.4563 12.1245 L237.1577 23.9133" clip-path="url(#clipPath2)"/>
    </g>
    <g stroke-linecap="butt" transform="matrix(1,0,0,1,256,61)" fill="blue" text-rendering="geometricPrecision" shape-rendering="geometricPrecision" stroke="blue" stroke-miterlimit="1.45">
      <path fill="none" d="M234.0339 27.3934 L175.6167 -9.9597" clip-path="url(#clipPath2)"/>
      <path d="M168.8767 -14.2694 L176.2931 -3.5924 L176.4592 -9.421 L181.6802 -12.0174 Z" clip-path="url(#clipPath2)" stroke="none"/>
      <path fill="none" d="M72.9169 33.5396 L107.6847 162.325" clip-path="url(#clipPath2)"/>
      <path d="M109.7698 170.0484 L111.4693 157.16 L107.4241 161.3595 L101.815 159.7664 Z" clip-path="url(#clipPath2)" stroke="none"/>
    </g>
    <g stroke-linecap="butt" transform="matrix(1,0,0,1,256,61)" fill="teal" text-rendering="geometricPrecision" shape-rendering="geometricPrecision" stroke-dasharray="12,4" stroke="teal" stroke-width="2" stroke-miterlimit="1.45">
      <path fill="none" d="M111.1885 169.7385 L104.8993 132.3905 L97.3193 97.774 L86.7513 65.1675 L74.3964 33.062" clip-path="url(#clipPath2)"/>
      <path fill="none" d="M122.611 172.513 L152.0273 132.935 L178.6633 100.21 L206.0553 72.381 L235.5852 45.5477" clip-path="url(#clipPath2)"/>
    </g>
    <g stroke-linecap="butt" transform="matrix(1,0,0,1,256,61)" fill="blue" text-rendering="geometricPrecision" shape-rendering="geometricPrecision" stroke="blue" stroke-miterlimit="1.45">
      <path fill="none" d="M123.6657 173.3374 L231.359 52.6359" clip-path="url(#clipPath2)"/>
      <path d="M236.685 46.6666 L224.9651 52.2918 L230.6932 53.3821 L232.4268 58.9494 Z" clip-path="url(#clipPath2)" stroke="none"/>
    </g>
    <g stroke-linecap="butt" transform="matrix(1,0,0,1,256,61)" fill="teal" text-rendering="geometricPrecision" shape-rendering="geometricPrecision" stroke-dasharray="12,4" stroke="teal" stroke-width="2" stroke-miterlimit="1.45">
      <path fill="none" d="M101.844 175.353 L91.0263 166.965 L76.5753 153.57 L64.1163 137.559 L55.6638 124.6788" clip-path="url(#clipPath2)"/>
    </g>
    <g stroke-linecap="butt" transform="matrix(1,0,0,1,256,61)" fill="blue" text-rendering="geometricPrecision" shape-rendering="geometricPrecision" stroke="blue" stroke-miterlimit="1.45">
      <path fill="none" d="M146.8054 -10.688 L61.9047 94.2643" clip-path="url(#clipPath2)"/>
      <path d="M56.8732 100.484 L68.3077 94.2991 L62.5336 93.4869 L60.533 88.0098 Z" clip-path="url(#clipPath2)" stroke="none"/>
      <path fill="none" d="M103.5528 173.4642 L62.9667 129.1136" clip-path="url(#clipPath2)"/>
      <path d="M57.5659 123.2118 L61.9785 135.44 L63.6418 129.8513 L69.3558 128.689 Z" clip-path="url(#clipPath2)" stroke="none"/>
    </g>
    <g stroke-linecap="butt" transform="matrix(1,0,0,1,256,61)" fill="teal" text-rendering="geometricPrecision" shape-rendering="geometricPrecision" stroke-dasharray="12,4" stroke="teal" stroke-width="2" stroke-miterlimit="1.45">
      <path fill="none" d="M47.2258 97.1189 L47.1508 91.8455 L48.4673 70.102 L50.7503 58.4369 L54.6618 46.1085 L60.6111 33.0158 L61.2835 31.8981" clip-path="url(#clipPath2)"/>
      <path fill="none" d="M58.5711 102.1212 L94.4453 69.8145 L109.8093 54.7659 L121.4473 41.694 L130.6343 29.0226 L138.6453 15.1755 L149.8649 -8.7543" clip-path="url(#clipPath2)"/>
    </g>
    <g stroke-linecap="butt" transform="matrix(1,0,0,1,256,61)" fill="blue" text-rendering="geometricPrecision" shape-rendering="geometricPrecision" stroke="blue" stroke-miterlimit="1.45">
      <path fill="none" d="M50.8251 97.5331 L63.8159 41.4644" clip-path="url(#clipPath2)"/>
      <path d="M65.6216 33.6709 L58.042 44.2326 L63.5902 42.4386 L67.784 46.4898 Z" clip-path="url(#clipPath2)" stroke="none"/>
    </g>
    <g stroke-linecap="butt" transform="matrix(1,0,0,1,256,61)" fill="teal" text-rendering="geometricPrecision" shape-rendering="geometricPrecision" stroke-dasharray="12,4" stroke="teal" stroke-width="2" stroke-miterlimit="1.45">
      <path fill="none" d="M250.5784 49.9571 L253.3953 60.3995 L256.3033 77.318 L255.9953 93.9785 L254.8703 103.2712" clip-path="url(#clipPath2)"/>
      <path fill="none" d="M62.3396 110.5526 L110.3583 105.4175 L132.9157 103.9341 L152.7513 103.798 L172.2749 105.0794 L193.8963 107.8485 L238.3065 115.5646" clip-path="url(#clipPath2)"/>
    </g>
    <g stroke-linecap="butt" transform="matrix(1,0,0,1,256,61)" fill="blue" text-rendering="geometricPrecision" shape-rendering="geometricPrecision" stroke="blue" stroke-miterlimit="1.45">
      <path fill="none" d="M247.8293 50.4292 L251.2958 95.1986" clip-path="url(#clipPath2)"/>
      <path d="M251.9134 103.1748 L255.9721 90.8246 L251.2186 94.2016 L246.0019 91.5966 Z" clip-path="url(#clipPath2)" stroke="none"/>
      <path fill="none" d="M62.433 112.5823 L230.0811 117.461" clip-path="url(#clipPath2)"/>
      <path d="M238.0777 117.6937 L226.2282 112.3467 L229.0815 117.4319 L225.9373 122.3425 Z" clip-path="url(#clipPath2)" stroke="none"/>
    </g>
    <g stroke-linecap="butt" transform="matrix(1,0,0,1,256,61)" fill="teal" text-rendering="geometricPrecision" shape-rendering="geometricPrecision" stroke-dasharray="12,4" stroke="teal" stroke-width="2" stroke-miterlimit="1.45">
      <path fill="none" d="M247.2834 131.9408 L242.3923 143.6115 L233.5193 159.502 L221.6703 172.4585 L213.4944 179.4137" clip-path="url(#clipPath2)"/>
    </g>
    <g stroke-linecap="butt" transform="matrix(1,0,0,1,256,61)" fill="blue" text-rendering="geometricPrecision" shape-rendering="geometricPrecision" stroke="blue" stroke-miterlimit="1.45">
      <path fill="none" d="M244.3201 130.3126 L215.4819 170.458" clip-path="url(#clipPath2)"/>
      <path d="M210.8146 176.9554 L221.8765 170.1264 L216.0654 169.6459 L213.7547 164.2923 Z" clip-path="url(#clipPath2)" stroke="none"/>
    </g>
    <g stroke-linecap="butt" transform="matrix(1,0,0,1,256,61)" fill="teal" text-rendering="geometricPrecision" shape-rendering="geometricPrecision" stroke-dasharray="12,4" stroke="teal" stroke-width="2" stroke-miterlimit="1.45">
      <path fill="none" d="M187.2563 191.4285 L176.5803 193.08 L158.8793 193.914 L140.6743 191.208 L128.2577 188.1364" clip-path="url(#clipPath2)"/>
    </g>
    <g stroke-linecap="butt" transform="matrix(1,0,0,1,256,61)" fill="blue" text-rendering="geometricPrecision" shape-rendering="geometricPrecision" stroke="blue" stroke-miterlimit="1.45">
      <path fill="none" d="M187.0837 188.357 L136.6481 185.7275" clip-path="url(#clipPath2)"/>
      <path d="M128.659 185.311 L140.3824 190.929 L137.6468 185.7796 L140.903 180.9426 Z" clip-path="url(#clipPath2)" stroke="none"/>
    </g>
    <g stroke-linecap="butt" transform="matrix(1,0,0,1,256,61)" fill="teal" text-rendering="geometricPrecision" shape-rendering="geometricPrecision" stroke-dasharray="12,4" stroke="teal" stroke-width="2" stroke-miterlimit="1.45">
      <path fill="none" d="M-192.9151 0.7494 L-185.0744 -6.437 L-177.4551 -12.1406 L-169.6905 -16.522 L-149.6364 -23.259 L-131.3537 -27.2992" clip-path="url(#clipPath2)"/>
    </g>
    <g stroke-linecap="butt" transform="matrix(1,0,0,1,256,61)" fill="red" text-rendering="geometricPrecision" shape-rendering="geometricPrecision" stroke="red" stroke-miterlimit="1.45">
      <path fill="none" d="M-190.4152 4.4456 L-137.5119 -20.667" clip-path="url(#clipPath2)"/>
      <path d="M-130.2848 -24.0976 L-143.2696 -23.4686 L-138.4153 -20.2381 L-138.9813 -14.4347 Z" clip-path="url(#clipPath2)" stroke="none"/>
    </g>
    <g stroke-linecap="butt" transform="matrix(1,0,0,1,256,61)" fill="teal" text-rendering="geometricPrecision" shape-rendering="geometricPrecision" stroke-dasharray="12,4" stroke="teal" stroke-width="2" stroke-miterlimit="1.45">
      <path fill="none" d="M-102.5407 -25.714 L-84.3644 -19.5465 L-73.2693 -14.8807 L-64.1545 -9.862 L-55.9601 -3.8128 L-47.6264 3.9445 L-36.4019 16.2349" clip-path="url(#clipPath2)"/>
    </g>
    <g stroke-linecap="butt" transform="matrix(1,0,0,1,256,61)" fill="blue" text-rendering="geometricPrecision" shape-rendering="geometricPrecision" stroke="blue" stroke-miterlimit="1.45">
      <path fill="none" d="M-38.9394 19.2134 L-97.3567 -18.1397" clip-path="url(#clipPath2)"/>
      <path d="M-104.0966 -22.4494 L-96.6802 -11.7725 L-96.5142 -17.601 L-91.2931 -20.1974 Z" clip-path="url(#clipPath2)" stroke="none"/>
      <path fill="none" d="M-200.0565 25.3596 L-165.2886 154.1449" clip-path="url(#clipPath2)" stroke="red"/>
      <path fill="red" d="M-163.2035 161.8684 L-161.504 148.98 L-165.5493 153.1795 L-171.1584 151.5864 Z" clip-path="url(#clipPath2)" stroke="none"/>
    </g>
    <g stroke-linecap="butt" transform="matrix(1,0,0,1,256,61)" fill="teal" text-rendering="geometricPrecision" shape-rendering="geometricPrecision" stroke-dasharray="12,4" stroke="teal" stroke-width="2" stroke-miterlimit="1.45">
      <path fill="none" d="M-162.362 161.6603 L-170.1834 124.2105 L-178.4665 89.594 L-188.3314 56.9875 L-199.1565 25.0621" clip-path="url(#clipPath2)"/>
      <path fill="none" d="M-150.6767 164.0811 L-123.0554 124.755 L-97.1225 92.03 L-84.1245 78.3769 L-69.0274 64.201 L-37.6718 37.1154" clip-path="url(#clipPath2)"/>
    </g>
    <g stroke-linecap="butt" transform="matrix(1,0,0,1,256,61)" fill="blue" text-rendering="geometricPrecision" shape-rendering="geometricPrecision" stroke="blue" stroke-miterlimit="1.45">
      <path fill="none" d="M-149.3077 165.1574 L-41.6144 44.4559" clip-path="url(#clipPath2)"/>
      <path d="M-36.2883 38.4866 L-48.0082 44.1118 L-42.2801 45.2021 L-40.5465 50.7694 Z" clip-path="url(#clipPath2)" stroke="none"/>
    </g>
    <g stroke-linecap="butt" transform="matrix(1,0,0,1,256,61)" fill="teal" text-rendering="geometricPrecision" shape-rendering="geometricPrecision" stroke-dasharray="12,4" stroke="teal" stroke-width="2" stroke-miterlimit="1.45">
      <path fill="none" d="M-171.5059 167.6876 L-184.0564 158.785 L-199.2105 145.39 L-210.9664 129.379 L-218.0652 116.9951" clip-path="url(#clipPath2)"/>
    </g>
    <g stroke-linecap="butt" transform="matrix(1,0,0,1,256,61)" fill="blue" text-rendering="geometricPrecision" shape-rendering="geometricPrecision" stroke="blue" stroke-miterlimit="1.45">
      <path fill="none" d="M-126.1679 -18.868 L-211.0687 86.0843" clip-path="url(#clipPath2)"/>
      <path d="M-216.1001 92.304 L-204.6656 86.1191 L-210.4398 85.3069 L-212.4403 79.8298 Z" clip-path="url(#clipPath2)" stroke="none"/>
      <path fill="none" d="M-169.4206 165.2842 L-210.0066 120.9336" clip-path="url(#clipPath2)" stroke="red"/>
      <path fill="red" d="M-215.4074 115.0318 L-210.9948 127.26 L-209.3315 121.6713 L-203.6176 120.509 Z" clip-path="url(#clipPath2)" stroke="none"/>
    </g>
    <g stroke-linecap="butt" transform="matrix(1,0,0,1,256,61)" fill="teal" text-rendering="geometricPrecision" shape-rendering="geometricPrecision" stroke-dasharray="12,4" stroke="teal" stroke-width="2" stroke-miterlimit="1.45">
      <path fill="none" d="M-227.2903 89.0975 L-227.9319 83.6655 L-228.2061 73.0246 L-227.3185 61.922 L-224.8598 50.2569 L-220.4209 37.9285 L-213.5927 24.8358 L-212.4833 23.2274" clip-path="url(#clipPath2)"/>
      <path fill="none" d="M-214.6387 93.6932 L-180.6374 61.6345 L-165.8007 46.5859 L-154.3385 33.514 L-144.9757 20.8426 L-136.4374 6.9955 L-123.7187 -17.2275" clip-path="url(#clipPath2)"/>
    </g>
    <g stroke-linecap="butt" transform="matrix(1,0,0,1,256,61)" fill="red" text-rendering="geometricPrecision" shape-rendering="geometricPrecision" stroke="red" stroke-miterlimit="1.45">
      <path fill="none" d="M-222.1483 89.3531 L-209.1575 33.2844" clip-path="url(#clipPath2)"/>
      <path d="M-207.3517 25.4909 L-214.9313 36.0526 L-209.3832 34.2586 L-205.1893 38.3098 Z" clip-path="url(#clipPath2)" stroke="none"/>
    </g>
    <g stroke-linecap="butt" transform="matrix(1,0,0,1,256,61)" fill="teal" text-rendering="geometricPrecision" shape-rendering="geometricPrecision" stroke-dasharray="12,4" stroke="teal" stroke-width="2" stroke-miterlimit="1.45">
      <path fill="none" d="M-23.5711 42.0448 L-21.6874 52.2195 L-19.4825 69.138 L-19.0874 85.7985 L-19.3976 94.9968" clip-path="url(#clipPath2)"/>
      <path fill="none" d="M-210.5988 102.3134 L-164.7244 97.2375 L-142.6943 95.7541 L-123.0345 95.618 L-103.3351 96.8994 L-81.1864 99.6685 L-34.7144 107.465" clip-path="url(#clipPath2)"/>
    </g>
    <g stroke-linecap="butt" transform="matrix(1,0,0,1,256,61)" fill="blue" text-rendering="geometricPrecision" shape-rendering="geometricPrecision" stroke="blue" stroke-miterlimit="1.45">
      <path fill="none" d="M-25.144 42.2492 L-21.6776 87.0186" clip-path="url(#clipPath2)"/>
      <path d="M-21.06 94.9948 L-17.0013 82.6446 L-21.7548 86.0216 L-26.9714 83.4166 Z" clip-path="url(#clipPath2)" stroke="none"/>
      <path fill="none" d="M-210.5403 104.4023 L-42.8923 109.281" clip-path="url(#clipPath2)"/>
      <path d="M-34.8957 109.5137 L-46.7451 104.1667 L-43.8918 109.2519 L-47.036 114.1625 Z" clip-path="url(#clipPath2)" stroke="none"/>
    </g>
    <g stroke-linecap="butt" transform="matrix(1,0,0,1,256,61)" fill="teal" text-rendering="geometricPrecision" shape-rendering="geometricPrecision" stroke-dasharray="12,4" stroke="teal" stroke-width="2" stroke-miterlimit="1.45">
      <path fill="none" d="M-26.6334 123.3626 L-32.6904 135.4315 L-42.2665 151.322 L-53.4124 164.2785 L-60.0765 170.631" clip-path="url(#clipPath2)"/>
    </g>
    <g stroke-linecap="butt" transform="matrix(1,0,0,1,256,61)" fill="blue" text-rendering="geometricPrecision" shape-rendering="geometricPrecision" stroke="blue" stroke-miterlimit="1.45">
      <path fill="none" d="M-28.6533 122.1326 L-57.4914 162.278" clip-path="url(#clipPath2)"/>
      <path d="M-62.1587 168.7754 L-51.0969 161.9464 L-56.908 161.4659 L-59.2186 156.1122 Z" clip-path="url(#clipPath2)" stroke="none"/>
    </g>
    <g stroke-linecap="butt" transform="matrix(1,0,0,1,256,61)" fill="teal" text-rendering="geometricPrecision" shape-rendering="geometricPrecision" stroke-dasharray="12,4" stroke="teal" stroke-width="2" stroke-miterlimit="1.45">
      <path fill="none" d="M-85.7571 183.0791 L-98.5024 184.9 L-116.9065 185.734 L-134.4084 183.028 L-144.7855 180.2433" clip-path="url(#clipPath2)"/>
    </g>
    <g stroke-linecap="butt" transform="matrix(1,0,0,1,256,61)" fill="blue" text-rendering="geometricPrecision" shape-rendering="geometricPrecision" stroke="blue" stroke-miterlimit="1.45">
      <path fill="none" d="M-85.8897 180.177 L-136.3252 177.5475" clip-path="url(#clipPath2)"/>
      <path d="M-144.3143 177.131 L-132.5909 182.749 L-135.3266 177.5996 L-132.0703 172.7625 Z" clip-path="url(#clipPath2)" stroke="none"/>
    </g>
    <g stroke-linecap="butt" transform="matrix(1,0,0,1,256,61)" fill="teal" text-rendering="geometricPrecision" shape-rendering="geometricPrecision" stroke-dasharray="12,4" stroke="teal" stroke-width="2" stroke-miterlimit="1.45">
      <path fill="none" d="M353.5681 15.4883 L362.9817 7.727 L379.0687 -2.358 L398.4197 -9.095 L414.6281 -12.9222" clip-path="url(#clipPath2)"/>
    </g>
    <g text-rendering="geometricPrecision" stroke-miterlimit="1.45" shape-rendering="geometricPrecision" transform="matrix(1,0,0,1,256,61)" stroke-linecap="butt">
      <path fill="none" d="M355.5315 18.6096 L408.4348 -6.503" clip-path="url(#clipPath2)"/>
      <path d="M415.6619 -9.9336 L402.6771 -9.3046 L407.5314 -6.0742 L406.9654 -0.2707 Z" clip-path="url(#clipPath2)" stroke="none"/>
    </g>
    <g stroke-linecap="butt" transform="matrix(1,0,0,1,256,61)" fill="teal" text-rendering="geometricPrecision" shape-rendering="geometricPrecision" stroke-dasharray="12,4" stroke="teal" stroke-width="2" stroke-miterlimit="1.45">
      <path fill="none" d="M443.5228 -11.8074 L463.6917 -5.3825 L475.3141 -0.7167 L484.6047 4.302 L492.6233 10.3512 L500.4297 18.1085 L510.131 29.8973" clip-path="url(#clipPath2)"/>
    </g>
    <g stroke-linecap="butt" transform="matrix(1,0,0,1,256,61)" fill="blue" text-rendering="geometricPrecision" shape-rendering="geometricPrecision" stroke="blue" stroke-miterlimit="1.45">
      <path fill="none" d="M507.0073 33.3774 L448.59 -3.9757" clip-path="url(#clipPath2)"/>
      <path d="M441.8501 -8.2854 L449.2664 2.3915 L449.4325 -3.437 L454.6535 -6.0334 Z" clip-path="url(#clipPath2)" stroke="none"/>
      <path fill="none" d="M345.8902 39.5236 L380.658 168.3089" clip-path="url(#clipPath2)" stroke="black"/>
      <path fill="black" d="M382.7431 176.0324 L384.4427 163.144 L380.3974 167.3435 L374.7883 165.7504 Z" clip-path="url(#clipPath2)" stroke="none"/>
    </g>
    <g stroke-linecap="butt" transform="matrix(1,0,0,1,256,61)" fill="teal" text-rendering="geometricPrecision" shape-rendering="geometricPrecision" stroke-dasharray="12,4" stroke="teal" stroke-width="2" stroke-miterlimit="1.45">
      <path fill="none" d="M384.1619 175.7225 L377.8727 138.3745 L370.2927 103.758 L359.7247 71.1515 L347.3697 39.046" clip-path="url(#clipPath2)"/>
      <path fill="none" d="M395.5843 178.497 L425.0007 138.919 L451.6367 106.194 L479.0287 78.365 L508.5586 51.5317" clip-path="url(#clipPath2)"/>
    </g>
    <g text-rendering="geometricPrecision" stroke-miterlimit="1.45" shape-rendering="geometricPrecision" transform="matrix(1,0,0,1,256,61)" stroke-linecap="butt">
      <path fill="none" d="M396.639 179.3214 L504.3323 58.6199" clip-path="url(#clipPath2)"/>
      <path d="M509.6584 52.6506 L497.9384 58.2758 L503.6666 59.3661 L505.4001 64.9334 Z" clip-path="url(#clipPath2)" stroke="none"/>
    </g>
    <g stroke-linecap="butt" transform="matrix(1,0,0,1,256,61)" fill="teal" text-rendering="geometricPrecision" shape-rendering="geometricPrecision" stroke-dasharray="12,4" stroke="teal" stroke-width="2" stroke-miterlimit="1.45">
      <path fill="none" d="M374.8174 181.337 L363.9997 172.949 L349.5487 159.554 L337.0897 143.543 L328.6371 130.6628" clip-path="url(#clipPath2)"/>
    </g>
    <g text-rendering="geometricPrecision" stroke-miterlimit="1.45" shape-rendering="geometricPrecision" transform="matrix(1,0,0,1,256,61)" stroke-linecap="butt">
      <path fill="none" d="M419.7788 -4.704 L334.878 100.2483" clip-path="url(#clipPath2)"/>
      <path d="M329.8466 106.468 L341.281 100.2831 L335.5069 99.4709 L333.5064 93.9938 Z" clip-path="url(#clipPath2)" stroke="none"/>
      <path fill="none" d="M376.5261 179.4482 L335.9401 135.0976" clip-path="url(#clipPath2)"/>
      <path d="M330.5392 129.1958 L334.9519 141.424 L336.6152 135.8353 L342.3291 134.673 Z" clip-path="url(#clipPath2)" stroke="none"/>
    </g>
    <g stroke-linecap="butt" transform="matrix(1,0,0,1,256,61)" fill="teal" text-rendering="geometricPrecision" shape-rendering="geometricPrecision" stroke-dasharray="12,4" stroke="teal" stroke-width="2" stroke-miterlimit="1.45">
      <path fill="none" d="M320.1991 103.1029 L320.1241 97.8295 L321.4407 76.086 L323.7236 64.4209 L327.6352 52.0925 L333.5845 38.9998 L334.2568 37.8821" clip-path="url(#clipPath2)"/>
      <path fill="none" d="M331.5445 108.1052 L367.4187 75.7985 L382.7827 60.7499 L394.4207 47.678 L403.6077 35.0066 L411.6187 21.1595 L422.8383 -2.7703" clip-path="url(#clipPath2)"/>
    </g>
    <g text-rendering="geometricPrecision" stroke-miterlimit="1.45" shape-rendering="geometricPrecision" transform="matrix(1,0,0,1,256,61)" stroke-linecap="butt">
      <path fill="none" d="M323.7984 103.5171 L336.7892 47.4484" clip-path="url(#clipPath2)"/>
      <path d="M338.5949 39.6549 L331.0154 50.2166 L336.5635 48.4226 L340.7573 52.4738 Z" clip-path="url(#clipPath2)" stroke="none"/>
    </g>
    <g stroke-linecap="butt" transform="matrix(1,0,0,1,256,61)" fill="teal" text-rendering="geometricPrecision" shape-rendering="geometricPrecision" stroke-dasharray="12,4" stroke="teal" stroke-width="2" stroke-miterlimit="1.45">
      <path fill="none" d="M523.5516 55.9411 L526.3687 66.3835 L529.2767 83.302 L528.9687 99.9625 L527.8436 109.2552" clip-path="url(#clipPath2)"/>
      <path fill="none" d="M335.3129 116.5366 L383.3317 111.4015 L405.889 109.9181 L425.7247 109.782 L445.2483 111.0634 L466.8697 113.8325 L511.2798 121.5486" clip-path="url(#clipPath2)"/>
    </g>
    <g text-rendering="geometricPrecision" stroke-miterlimit="1.45" shape-rendering="geometricPrecision" transform="matrix(1,0,0,1,256,61)" stroke-linecap="butt">
      <path fill="none" d="M335.4063 118.5663 L503.0544 123.445" clip-path="url(#clipPath2)"/>
      <path d="M511.051 123.6777 L499.2015 118.3307 L502.0548 123.4159 L498.9107 128.3265 Z" clip-path="url(#clipPath2)" stroke="none"/>
      <path fill="none" d="M520.8026 56.4132 L524.2691 101.1826" clip-path="url(#clipPath2)"/>
      <path d="M524.8867 109.1588 L528.9454 96.8086 L524.1919 100.1856 L518.9752 97.5806 Z" clip-path="url(#clipPath2)" stroke="none"/>
    </g>
    <g stroke-linecap="butt" transform="matrix(1,0,0,1,256,61)" fill="teal" text-rendering="geometricPrecision" shape-rendering="geometricPrecision" stroke-dasharray="12,4" stroke="teal" stroke-width="2" stroke-miterlimit="1.45">
      <path fill="none" d="M520.2567 137.9248 L515.3657 149.5955 L506.4926 165.486 L494.6436 178.4425 L486.4677 185.3977" clip-path="url(#clipPath2)"/>
    </g>
    <g text-rendering="geometricPrecision" stroke-miterlimit="1.45" shape-rendering="geometricPrecision" transform="matrix(1,0,0,1,256,61)" stroke-linecap="butt">
      <path fill="none" d="M517.2934 136.2966 L488.4553 176.442" clip-path="url(#clipPath2)"/>
      <path d="M483.7879 182.9394 L494.8498 176.1104 L489.0387 175.6299 L486.7281 170.2763 Z" clip-path="url(#clipPath2)" stroke="none"/>
    </g>
    <g stroke-linecap="butt" transform="matrix(1,0,0,1,256,61)" fill="teal" text-rendering="geometricPrecision" shape-rendering="geometricPrecision" stroke-dasharray="12,4" stroke="teal" stroke-width="2" stroke-miterlimit="1.45">
      <path fill="none" d="M460.2296 197.4125 L449.5536 199.064 L431.8527 199.898 L413.6477 197.192 L401.231 194.1204" clip-path="url(#clipPath2)"/>
    </g>
    <g text-rendering="geometricPrecision" stroke-miterlimit="1.45" shape-rendering="geometricPrecision" transform="matrix(1,0,0,1,256,61)" stroke-linecap="butt">
      <path fill="none" d="M460.057 194.341 L409.6215 191.7115" clip-path="url(#clipPath2)"/>
      <path d="M401.6323 191.295 L413.3557 196.913 L410.6201 191.7636 L413.8764 186.9265 Z" clip-path="url(#clipPath2)" stroke="none"/>
    </g>
  </g>
</svg>
