<?xml version="1.0" encoding="UTF-8"?><svg xmlns="http://www.w3.org/2000/svg" xmlns:xlink="http://www.w3.org/1999/xlink" fill-opacity="1" color-rendering="auto" color-interpolation="auto" text-rendering="auto" stroke="black" stroke-linecap="square" width="343" stroke-miterlimit="10" shape-rendering="auto" stroke-opacity="1" fill="black" stroke-dasharray="none" font-weight="normal" stroke-width="1" height="331" font-family="'Dialog'" font-style="normal" stroke-linejoin="miter" font-size="12px" stroke-dashoffset="0" image-rendering="auto">
  <!--Generated by ySVG 2.5-->
  <defs id="genericDefs"/>
  <g>
    <defs id="defs1">
      <clipPath clipPathUnits="userSpaceOnUse" id="clipPath1">
        <path d="M0 0 L343 0 L343 331 L0 331 L0 0 Z"/>
      </clipPath>
      <clipPath clipPathUnits="userSpaceOnUse" id="clipPath2">
        <path d="M63 56 L406 56 L406 387 L63 387 L63 56 Z"/>
      </clipPath>
    </defs>
    <g fill="white" text-rendering="geometricPrecision" shape-rendering="geometricPrecision" transform="translate(-63,-56)" stroke="white">
      <rect x="63" width="343" height="331" y="56" clip-path="url(#clipPath2)" stroke="none"/>
    </g>
    <g fill="rgb(204,255,255)" text-rendering="geometricPrecision" shape-rendering="geometricPrecision" transform="matrix(1,0,0,1,-63,-56)" stroke="rgb(204,255,255)">
      <ellipse rx="20" ry="15" clip-path="url(#clipPath2)" cx="98.6" cy="159" stroke="none"/>
    </g>
    <g text-rendering="geometricPrecision" stroke-miterlimit="1.45" shape-rendering="geometricPrecision" transform="matrix(1,0,0,1,-63,-56)" stroke-linecap="butt">
      <ellipse rx="20" fill="none" ry="15" clip-path="url(#clipPath2)" cx="98.6" cy="159"/>
      <text x="83.5854" xml:space="preserve" y="163.7139" clip-path="url(#clipPath2)" font-family="sans-serif" stroke="none">13,16</text>
    </g>
    <g fill="rgb(204,255,255)" text-rendering="geometricPrecision" shape-rendering="geometricPrecision" transform="matrix(1,0,0,1,-63,-56)" stroke="rgb(204,255,255)">
      <ellipse rx="20" ry="15" clip-path="url(#clipPath2)" cx="98.6" cy="356.8" stroke="none"/>
    </g>
    <g text-rendering="geometricPrecision" stroke-miterlimit="1.45" shape-rendering="geometricPrecision" transform="matrix(1,0,0,1,-63,-56)" stroke-linecap="butt">
      <ellipse rx="20" fill="none" ry="15" clip-path="url(#clipPath2)" cx="98.6" cy="356.8"/>
      <text x="83.5854" xml:space="preserve" y="361.5139" clip-path="url(#clipPath2)" font-family="sans-serif" stroke="none">15,19</text>
    </g>
    <g fill="rgb(204,255,255)" text-rendering="geometricPrecision" shape-rendering="geometricPrecision" transform="matrix(1,0,0,1,-63,-56)" stroke="rgb(204,255,255)">
      <ellipse rx="20" ry="15" clip-path="url(#clipPath2)" cx="179.6" cy="86.64" stroke="none"/>
    </g>
    <g text-rendering="geometricPrecision" stroke-miterlimit="1.45" shape-rendering="geometricPrecision" transform="matrix(1,0,0,1,-63,-56)" stroke-linecap="butt">
      <ellipse rx="20" fill="none" ry="15" clip-path="url(#clipPath2)" cx="179.6" cy="86.64"/>
      <text x="167.9223" xml:space="preserve" y="91.3539" clip-path="url(#clipPath2)" font-family="sans-serif" stroke="none">1,12</text>
    </g>
    <g fill="rgb(204,255,255)" text-rendering="geometricPrecision" shape-rendering="geometricPrecision" transform="matrix(1,0,0,1,-63,-56)" stroke="rgb(204,255,255)">
      <ellipse rx="20" ry="15" clip-path="url(#clipPath2)" cx="370.48" cy="86.64" stroke="none"/>
    </g>
    <g text-rendering="geometricPrecision" stroke-miterlimit="1.45" shape-rendering="geometricPrecision" transform="matrix(1,0,0,1,-63,-56)" stroke-linecap="butt">
      <ellipse rx="20" fill="none" ry="15" clip-path="url(#clipPath2)" cx="370.48" cy="86.64"/>
      <text x="362.1392" xml:space="preserve" y="91.3539" clip-path="url(#clipPath2)" font-family="sans-serif" stroke="none">2,6</text>
    </g>
    <g fill="rgb(204,255,255)" text-rendering="geometricPrecision" shape-rendering="geometricPrecision" transform="matrix(1,0,0,1,-63,-56)" stroke="rgb(204,255,255)">
      <ellipse rx="20" ry="15" clip-path="url(#clipPath2)" cx="179.6" cy="253.84" stroke="none"/>
    </g>
    <g text-rendering="geometricPrecision" stroke-miterlimit="1.45" shape-rendering="geometricPrecision" transform="matrix(1,0,0,1,-63,-56)" stroke-linecap="butt">
      <ellipse rx="20" fill="none" ry="15" clip-path="url(#clipPath2)" cx="179.6" cy="253.84"/>
      <text x="164.5854" xml:space="preserve" y="258.5539" clip-path="url(#clipPath2)" font-family="sans-serif" stroke="none">10,20</text>
    </g>
    <g fill="rgb(204,255,255)" text-rendering="geometricPrecision" shape-rendering="geometricPrecision" transform="matrix(1,0,0,1,-63,-56)" stroke="rgb(204,255,255)">
      <ellipse rx="20" ry="15" clip-path="url(#clipPath2)" cx="370.48" cy="253.84" stroke="none"/>
    </g>
    <g text-rendering="geometricPrecision" stroke-miterlimit="1.45" shape-rendering="geometricPrecision" transform="matrix(1,0,0,1,-63,-56)" stroke-linecap="butt">
      <ellipse rx="20" fill="none" ry="15" clip-path="url(#clipPath2)" cx="370.48" cy="253.84"/>
      <text x="362.1392" xml:space="preserve" y="258.5539" clip-path="url(#clipPath2)" font-family="sans-serif" stroke="none">3,9</text>
    </g>
    <g fill="rgb(255,204,0)" text-rendering="geometricPrecision" shape-rendering="geometricPrecision" transform="matrix(1,0,0,1,-63,-56)" stroke="rgb(255,204,0)">
      <ellipse rx="30" ry="15" clip-path="url(#clipPath2)" cx="245.25" cy="212.59" stroke="none"/>
    </g>
    <g text-rendering="geometricPrecision" stroke-miterlimit="1.45" shape-rendering="geometricPrecision" transform="matrix(1,0,0,1,-63,-56)" stroke-linecap="butt">
      <ellipse rx="30" fill="none" ry="15" clip-path="url(#clipPath2)" cx="245.25" cy="212.59"/>
      <text x="220.2275" xml:space="preserve" y="217.3039" clip-path="url(#clipPath2)" font-family="sans-serif" stroke="none">4,7,11,14</text>
    </g>
    <g fill="rgb(204,255,255)" text-rendering="geometricPrecision" shape-rendering="geometricPrecision" transform="matrix(1,0,0,1,-63,-56)" stroke="rgb(204,255,255)">
      <ellipse rx="20" ry="15" clip-path="url(#clipPath2)" cx="303.6" cy="159" stroke="none"/>
    </g>
    <g text-rendering="geometricPrecision" stroke-miterlimit="1.45" shape-rendering="geometricPrecision" transform="matrix(1,0,0,1,-63,-56)" stroke-linecap="butt">
      <ellipse rx="20" fill="none" ry="15" clip-path="url(#clipPath2)" cx="303.6" cy="159"/>
      <text x="291.9223" xml:space="preserve" y="163.7139" clip-path="url(#clipPath2)" font-family="sans-serif" stroke="none">5,17</text>
    </g>
    <g fill="rgb(204,255,255)" text-rendering="geometricPrecision" shape-rendering="geometricPrecision" transform="matrix(1,0,0,1,-63,-56)" stroke="rgb(204,255,255)">
      <ellipse rx="20" ry="15" clip-path="url(#clipPath2)" cx="303.6" cy="356.8" stroke="none"/>
    </g>
    <g text-rendering="geometricPrecision" stroke-miterlimit="1.45" shape-rendering="geometricPrecision" transform="matrix(1,0,0,1,-63,-56)" stroke-linecap="butt">
      <ellipse rx="20" fill="none" ry="15" clip-path="url(#clipPath2)" cx="303.6" cy="356.8"/>
      <text x="291.9223" xml:space="preserve" y="361.5139" clip-path="url(#clipPath2)" font-family="sans-serif" stroke="none">8,18</text>
      <path fill="none" d="M98.6 341.8 L98.6 184" stroke-width="3" clip-path="url(#clipPath2)" stroke="green"/>
      <path fill="green" d="M98.6 174 L92.35 189 L98.6 185.25 L104.85 189 Z" stroke-width="3" clip-path="url(#clipPath2)" stroke="none"/>
      <path fill="none" d="M166.7402 98.1281 L118.9174 140.8498" stroke-width="3" clip-path="url(#clipPath2)" stroke="maroon"/>
      <path fill="maroon" d="M111.4598 147.5119 L126.8101 142.1797 L119.8496 140.017 L118.4824 132.8577 Z" stroke-width="3" clip-path="url(#clipPath2)" stroke="none"/>
      <path fill="none" d="M199.6 86.64 L340.48 86.64" stroke-width="3" clip-path="url(#clipPath2)" stroke="rgb(255,102,0)"/>
      <path fill="rgb(255,102,0)" d="M350.48 86.64 L335.48 80.39 L339.23 86.64 L335.48 92.89 Z" stroke-width="3" clip-path="url(#clipPath2)" stroke="none"/>
      <path fill="none" d="M108.7634 343.8812 L163.2535 274.6182" stroke-width="3" clip-path="url(#clipPath2)" stroke="green"/>
      <path fill="green" d="M169.4366 266.7588 L155.2499 274.6834 L162.4806 275.6006 L165.0741 282.4123 Z" stroke-width="3" clip-path="url(#clipPath2)" stroke="none"/>
      <path fill="none" d="M179.6 238.84 L179.6 111.64" stroke-width="3" clip-path="url(#clipPath2)" stroke="green"/>
      <path fill="green" d="M179.6 101.64 L173.35 116.64 L179.6 112.89 L185.85 116.64 Z" stroke-width="3" clip-path="url(#clipPath2)" stroke="none"/>
      <path fill="none" d="M370.48 101.64 L370.48 228.84" stroke-width="3" clip-path="url(#clipPath2)" stroke="rgb(255,102,0)"/>
      <path fill="rgb(255,102,0)" d="M370.48 238.84 L376.73 223.84 L370.48 227.59 L364.23 223.84 Z" stroke-width="3" clip-path="url(#clipPath2)" stroke="none"/>
      <path fill="none" d="M350.48 253.84 L209.6 253.84" stroke-width="3" clip-path="url(#clipPath2)" stroke="rgb(153,204,255)"/>
      <path fill="rgb(153,204,255)" d="M199.6 253.84 L214.6 260.09 L210.85 253.84 L214.6 247.59 Z" stroke-width="3" clip-path="url(#clipPath2)" stroke="none"/>
    </g>
    <g stroke-linecap="butt" transform="matrix(1,0,0,1,-63,-56)" fill="gray" text-rendering="geometricPrecision" shape-rendering="geometricPrecision" stroke-dasharray="18,6" stroke="gray" stroke-width="3" stroke-miterlimit="1.45">
      <path fill="none" d="M353.0744 94.0336 L336.0054 101.2841 L309.8433 113.2905 L290.5261 124.135 L276.5862 135.2937 L266.5563 148.2426 L258.9686 164.4577 L252.3557 185.4148 L251.6726 188.0273" clip-path="url(#clipPath2)"/>
      <path d="M249.1429 197.702 L258.9842 184.771 L251.9888 186.8179 L246.8907 181.6088 Z" clip-path="url(#clipPath2)" stroke="none"/>
      <path fill="none" d="M352.1682 247.8082 L279.8002 223.9706" clip-path="url(#clipPath2)"/>
      <path d="M270.3022 220.8421 L282.5939 231.4712 L280.9875 224.3617 L286.5046 219.5987 Z" clip-path="url(#clipPath2)" stroke="none"/>
      <path fill="none" d="M194.9309 244.2071 L218.1027 229.6476" clip-path="url(#clipPath2)"/>
      <path d="M226.5699 224.3273 L210.5439 227.0156 L217.0443 230.3126 L217.1942 237.5997 Z" clip-path="url(#clipPath2)" stroke="none"/>
      <path fill="none" d="M116.5794 165.5702 L211.6367 200.3068" clip-path="url(#clipPath2)"/>
      <path d="M221.0293 203.7391 L209.0857 192.7203 L210.4627 199.8777 L204.7953 204.461 Z" clip-path="url(#clipPath2)" stroke="none"/>
      <path fill="none" d="M238.781 227.2133 L230.5622 245.7924 L218.2705 271.2789 L206.6563 290.7393 L194.0013 305.8638 L178.5866 318.3421 L158.6939 329.8642 L132.6046 342.1202 L125.0822 345.3676" clip-path="url(#clipPath2)"/>
      <path d="M115.9011 349.3311 L132.1498 349.1241 L126.2298 344.8722 L127.1955 337.6478 Z" clip-path="url(#clipPath2)" stroke="none"/>
      <path fill="none" d="M237.6841 198.0749 L191.5041 109.4781" clip-path="url(#clipPath2)"/>
      <path d="M186.8819 100.6104 L188.2729 116.8008 L192.0819 110.5865 L199.3575 111.0231 Z" clip-path="url(#clipPath2)" stroke="none"/>
      <path fill="none" stroke-dasharray="none" d="M118.6 159 L273.6 159" clip-path="url(#clipPath2)" stroke="green"/>
      <path fill="green" stroke-dasharray="none" d="M283.6 159 L268.6 152.75 L272.35 159 L268.6 165.25 Z" clip-path="url(#clipPath2)" stroke="none"/>
      <path fill="none" d="M259.5944 199.4158 L283.5847 177.3825" clip-path="url(#clipPath2)"/>
      <path d="M290.9498 170.6183 L275.6745 176.1615 L282.664 178.2281 L284.1298 185.3679 Z" clip-path="url(#clipPath2)" stroke="none"/>
      <path fill="none" stroke-dasharray="none" d="M314.9941 146.6723 L352.2984 106.3114" clip-path="url(#clipPath2)" stroke="blue"/>
      <path fill="blue" stroke-dasharray="none" d="M359.0859 98.9677 L344.3148 105.741 L351.4499 107.2294 L353.4944 114.2254 Z" clip-path="url(#clipPath2)" stroke="none"/>
      <path fill="none" d="M251.1988 227.2921 L294.0415 333.1764" clip-path="url(#clipPath2)"/>
      <path d="M297.7923 342.4464 L297.9598 326.1972 L293.5726 332.0177 L286.3724 330.8857 Z" clip-path="url(#clipPath2)" stroke="none"/>
      <path fill="none" stroke-dasharray="none" d="M303.6 174 L303.6 331.8" clip-path="url(#clipPath2)" stroke="green"/>
      <path fill="green" stroke-dasharray="none" d="M303.6 341.8 L309.85 326.8 L303.6 330.55 L297.35 326.8 Z" clip-path="url(#clipPath2)" stroke="none"/>
      <path fill="none" stroke-dasharray="none" d="M312.3594 343.3152 L356.2733 275.7109" clip-path="url(#clipPath2)" stroke="rgb(153,204,255)"/>
      <path fill="rgb(153,204,255)" stroke-dasharray="none" d="M361.7206 267.3248 L348.3083 276.4993 L355.5923 276.7592 L358.7909 283.3085 Z" clip-path="url(#clipPath2)" stroke="none"/>
      <path fill="none" stroke-dasharray="none" d="M283.6 356.8 L128.6 356.8" clip-path="url(#clipPath2)" stroke="green"/>
      <path fill="green" stroke-dasharray="none" d="M118.6 356.8 L133.6 363.05 L129.85 356.8 L133.6 350.55 Z" clip-path="url(#clipPath2)" stroke="none"/>
    </g>
  </g>
</svg>
