<?xml version="1.0" encoding="UTF-8"?><svg xmlns="http://www.w3.org/2000/svg" xmlns:xlink="http://www.w3.org/1999/xlink" fill-opacity="1" color-rendering="auto" color-interpolation="auto" text-rendering="auto" stroke="black" stroke-linecap="square" width="424" stroke-miterlimit="10" shape-rendering="auto" stroke-opacity="1" fill="black" stroke-dasharray="none" font-weight="normal" stroke-width="1" height="302" font-family="'Dialog'" font-style="normal" stroke-linejoin="miter" font-size="12px" stroke-dashoffset="0" image-rendering="auto">
  <!--Generated by ySVG 2.5-->
  <defs id="genericDefs"/>
  <g>
    <defs id="defs1">
      <clipPath clipPathUnits="userSpaceOnUse" id="clipPath1">
        <path d="M0 0 L424 0 L424 302 L0 302 L0 0 Z"/>
      </clipPath>
      <clipPath clipPathUnits="userSpaceOnUse" id="clipPath2">
        <path d="M29 62 L453 62 L453 364 L29 364 L29 62 Z"/>
      </clipPath>
    </defs>
    <g fill="white" text-rendering="geometricPrecision" shape-rendering="geometricPrecision" transform="translate(-29,-62)" stroke="white">
      <rect x="29" width="424" height="302" y="62" clip-path="url(#clipPath2)" stroke="none"/>
    </g>
    <g fill="rgb(153,204,255)" text-rendering="geometricPrecision" shape-rendering="geometricPrecision" transform="matrix(1,0,0,1,-29,-62)" stroke="rgb(153,204,255)">
      <circle r="15" clip-path="url(#clipPath2)" cx="59" cy="92" stroke="none"/>
    </g>
    <g text-rendering="geometricPrecision" stroke-miterlimit="1.45" shape-rendering="geometricPrecision" transform="matrix(1,0,0,1,-29,-62)" stroke-linecap="butt">
      <circle fill="none" r="15" clip-path="url(#clipPath2)" cx="59" cy="92"/>
      <text x="55.6631" xml:space="preserve" y="96.7139" clip-path="url(#clipPath2)" font-family="sans-serif" stroke="none">1</text>
    </g>
    <g fill="rgb(153,204,255)" text-rendering="geometricPrecision" shape-rendering="geometricPrecision" transform="matrix(1,0,0,1,-29,-62)" stroke="rgb(153,204,255)">
      <circle r="15" clip-path="url(#clipPath2)" cx="186" cy="92" stroke="none"/>
    </g>
    <g text-rendering="geometricPrecision" stroke-miterlimit="1.45" shape-rendering="geometricPrecision" transform="matrix(1,0,0,1,-29,-62)" stroke-linecap="butt">
      <circle fill="none" r="15" clip-path="url(#clipPath2)" cx="186" cy="92"/>
      <text x="182.6631" xml:space="preserve" y="96.7139" clip-path="url(#clipPath2)" font-family="sans-serif" stroke="none">2</text>
    </g>
    <g fill="rgb(153,204,255)" text-rendering="geometricPrecision" shape-rendering="geometricPrecision" transform="matrix(1,0,0,1,-29,-62)" stroke="rgb(153,204,255)">
      <circle r="15" clip-path="url(#clipPath2)" cx="59" cy="224" stroke="none"/>
    </g>
    <g text-rendering="geometricPrecision" stroke-miterlimit="1.45" shape-rendering="geometricPrecision" transform="matrix(1,0,0,1,-29,-62)" stroke-linecap="butt">
      <circle fill="none" r="15" clip-path="url(#clipPath2)" cx="59" cy="224"/>
      <text x="55.6631" xml:space="preserve" y="228.7139" clip-path="url(#clipPath2)" font-family="sans-serif" stroke="none">3</text>
    </g>
    <g fill="rgb(153,204,255)" text-rendering="geometricPrecision" shape-rendering="geometricPrecision" transform="matrix(1,0,0,1,-29,-62)" stroke="rgb(153,204,255)">
      <circle r="15" clip-path="url(#clipPath2)" cx="186" cy="224" stroke="none"/>
    </g>
    <g text-rendering="geometricPrecision" stroke-miterlimit="1.45" shape-rendering="geometricPrecision" transform="matrix(1,0,0,1,-29,-62)" stroke-linecap="butt">
      <circle fill="none" r="15" clip-path="url(#clipPath2)" cx="186" cy="224"/>
      <text x="182.6631" xml:space="preserve" y="228.7139" clip-path="url(#clipPath2)" font-family="sans-serif" stroke="none">4</text>
    </g>
    <g fill="rgb(153,204,255)" text-rendering="geometricPrecision" shape-rendering="geometricPrecision" transform="matrix(1,0,0,1,-29,-62)" stroke="rgb(153,204,255)">
      <circle r="15" clip-path="url(#clipPath2)" cx="310" cy="224" stroke="none"/>
    </g>
    <g text-rendering="geometricPrecision" stroke-miterlimit="1.45" shape-rendering="geometricPrecision" transform="matrix(1,0,0,1,-29,-62)" stroke-linecap="butt">
      <circle fill="none" r="15" clip-path="url(#clipPath2)" cx="310" cy="224"/>
      <text x="306.6631" xml:space="preserve" y="228.7139" clip-path="url(#clipPath2)" font-family="sans-serif" stroke="none">5</text>
    </g>
    <g fill="rgb(153,204,255)" text-rendering="geometricPrecision" shape-rendering="geometricPrecision" transform="matrix(1,0,0,1,-29,-62)" stroke="rgb(153,204,255)">
      <circle r="15" clip-path="url(#clipPath2)" cx="186" cy="334" stroke="none"/>
    </g>
    <g text-rendering="geometricPrecision" stroke-miterlimit="1.45" shape-rendering="geometricPrecision" transform="matrix(1,0,0,1,-29,-62)" stroke-linecap="butt">
      <circle fill="none" r="15" clip-path="url(#clipPath2)" cx="186" cy="334"/>
      <text x="182.6631" xml:space="preserve" y="338.7139" clip-path="url(#clipPath2)" font-family="sans-serif" stroke="none">6</text>
    </g>
    <g fill="rgb(153,204,255)" text-rendering="geometricPrecision" shape-rendering="geometricPrecision" transform="matrix(1,0,0,1,-29,-62)" stroke="rgb(153,204,255)">
      <circle r="15" clip-path="url(#clipPath2)" cx="310" cy="334" stroke="none"/>
    </g>
    <g text-rendering="geometricPrecision" stroke-miterlimit="1.45" shape-rendering="geometricPrecision" transform="matrix(1,0,0,1,-29,-62)" stroke-linecap="butt">
      <circle fill="none" r="15" clip-path="url(#clipPath2)" cx="310" cy="334"/>
      <text x="306.6631" xml:space="preserve" y="338.7139" clip-path="url(#clipPath2)" font-family="sans-serif" stroke="none">7</text>
    </g>
    <g fill="rgb(153,204,255)" text-rendering="geometricPrecision" shape-rendering="geometricPrecision" transform="matrix(1,0,0,1,-29,-62)" stroke="rgb(153,204,255)">
      <circle r="15" clip-path="url(#clipPath2)" cx="395" cy="278" stroke="none"/>
    </g>
    <g text-rendering="geometricPrecision" stroke-miterlimit="1.45" shape-rendering="geometricPrecision" transform="matrix(1,0,0,1,-29,-62)" stroke-linecap="butt">
      <circle fill="none" r="15" clip-path="url(#clipPath2)" cx="395" cy="278"/>
      <text x="391.6631" xml:space="preserve" y="282.7139" clip-path="url(#clipPath2)" font-family="sans-serif" stroke="none">8</text>
      <path fill="none" d="M74 92 L162 92" stroke-width="2" clip-path="url(#clipPath2)"/>
      <path d="M171 92 L157.5 86.375 L160.875 92 L157.5 97.625 Z" stroke-width="2" clip-path="url(#clipPath2)" stroke="none"/>
      <path fill="none" d="M177.9736 104.6719 L154.7656 141.3125 L142.7402 158.0234 L131.125 171.5 L118.4316 183.2891 L103.1719 194.9375 L79.0496 210.8085" stroke-width="2" clip-path="url(#clipPath2)"/>
      <path d="M71.531 215.7553 L85.9006 213.0343 L79.9894 210.1902 L79.7171 203.636 Z" stroke-width="2" clip-path="url(#clipPath2)" stroke="none"/>
      <path fill="none" d="M59 209 L59 116" stroke-width="2" clip-path="url(#clipPath2)"/>
      <path d="M59 107 L53.375 120.5 L59 117.125 L64.625 120.5 Z" stroke-width="2" clip-path="url(#clipPath2)" stroke="none"/>
      <path fill="none" d="M65.9437 210.704 L87.9844 168.5 L99.4473 150.2422 L110.875 136.25 L123.7559 124.9766 L139.5781 114.875 L159.8301 104.3984 L164.311 102.2755" stroke-width="2" clip-path="url(#clipPath2)"/>
      <path d="M172.4444 98.4222 L157.836 99.1188 L163.2943 102.7572 L162.6526 109.2856 Z" stroke-width="2" clip-path="url(#clipPath2)" stroke="none"/>
      <path fill="none" d="M186 107 L186 200" stroke-width="2" clip-path="url(#clipPath2)"/>
      <path d="M186 209 L191.625 195.5 L186 198.875 L180.375 195.5 Z" stroke-width="2" clip-path="url(#clipPath2)" stroke="none"/>
      <path fill="none" d="M171 224 L83 224" stroke-width="2" clip-path="url(#clipPath2)"/>
      <path d="M74 224 L87.5 229.625 L84.125 224 L87.5 218.375 Z" stroke-width="2" clip-path="url(#clipPath2)" stroke="none"/>
      <path fill="none" d="M201 224 L286 224" stroke-width="2" clip-path="url(#clipPath2)"/>
      <path d="M295 224 L281.5 218.375 L284.875 224 L281.5 229.625 Z" stroke-width="2" clip-path="url(#clipPath2)" stroke="none"/>
      <path fill="none" d="M186 319 L186 248" stroke-width="2" clip-path="url(#clipPath2)"/>
      <path d="M186 239 L180.375 252.5 L186 249.125 L191.625 252.5 Z" stroke-width="2" clip-path="url(#clipPath2)" stroke="none"/>
      <path fill="none" d="M316.8803 237.329 L327.4375 257.7812 L331.7969 269.8789 L333.25 280.5 L331.7969 290.9336 L327.4375 302.4688 L321.6147 312.9977" stroke-width="2" clip-path="url(#clipPath2)"/>
      <path d="M317.2592 320.8736 L328.7149 311.782 L322.1592 312.0132 L318.8701 306.3376 Z" stroke-width="2" clip-path="url(#clipPath2)" stroke="none"/>
      <path fill="none" d="M295 334 L210 334" stroke-width="2" clip-path="url(#clipPath2)"/>
      <path d="M201 334 L214.5 339.625 L211.125 334 L214.5 328.375 Z" stroke-width="2" clip-path="url(#clipPath2)" stroke="none"/>
      <path fill="none" d="M305.5579 319.6728 L299.875 301.3438 L297.3438 289.5273 L296.5 279 L297.3438 268.4727 L299.875 256.6562 L302.8926 246.9235" stroke-width="2" clip-path="url(#clipPath2)"/>
      <path d="M305.5579 238.3272 L296.1873 249.5558 L302.5595 247.998 L306.9327 252.8874 Z" stroke-width="2" clip-path="url(#clipPath2)" stroke="none"/>
      <path fill="none" d="M322.661 232.0435 L374.7423 265.1304" stroke-width="2" clip-path="url(#clipPath2)"/>
      <path d="M382.3389 269.9565 L373.9603 257.9695 L373.7927 264.5272 L367.9277 267.4653 Z" stroke-width="2" clip-path="url(#clipPath2)" stroke="none"/>
      <path fill="none" d="M408.6578 284.2579 L417.2715 286.543 L425.0784 286.4419 L430.8594 284.0938 L434.7595 279.9995 L436.9238 274.6602 L437.4973 268.5767 L436.625 262.25 L434.4519 256.1812 L431.123 250.8711 L426.7834 246.8208 L421.5781 244.5312 L415.6521 244.5034 L409.1504 247.2383 L402.218 253.2368 L400.3504 255.763" stroke-width="2" clip-path="url(#clipPath2)"/>
      <path d="M395 263 L407.5486 255.4885 L401.0192 254.8584 L398.5024 248.8006 Z" stroke-width="2" clip-path="url(#clipPath2)" stroke="none"/>
      <path fill="none" d="M382.4741 286.2524 L330.0415 320.7962" stroke-width="2" clip-path="url(#clipPath2)"/>
      <path d="M322.5259 325.7476 L336.8939 323.0177 L330.9809 320.1773 L330.7046 313.6233 Z" stroke-width="2" clip-path="url(#clipPath2)" stroke="none"/>
    </g>
  </g>
</svg>
