<?xml version="1.0" encoding="UTF-8"?><svg xmlns="http://www.w3.org/2000/svg" xmlns:xlink="http://www.w3.org/1999/xlink" fill-opacity="1" color-rendering="auto" color-interpolation="auto" text-rendering="auto" stroke="black" stroke-linecap="square" width="704" stroke-miterlimit="10" shape-rendering="auto" stroke-opacity="1" fill="black" stroke-dasharray="none" font-weight="normal" stroke-width="1" height="228" font-family="'Dialog'" font-style="normal" stroke-linejoin="miter" font-size="12px" stroke-dashoffset="0" image-rendering="auto">
  <!--Generated by ySVG 2.5-->
  <defs id="genericDefs"/>
  <g>
    <defs id="defs1">
      <clipPath clipPathUnits="userSpaceOnUse" id="clipPath1">
        <path d="M0 0 L704 0 L704 228 L0 228 L0 0 Z"/>
      </clipPath>
      <clipPath clipPathUnits="userSpaceOnUse" id="clipPath2">
        <path d="M352 47 L1056 47 L1056 275 L352 275 L352 47 Z"/>
      </clipPath>
    </defs>
    <g fill="white" text-rendering="geometricPrecision" shape-rendering="geometricPrecision" transform="translate(-352,-47)" stroke="white">
      <rect x="352" width="704" height="228" y="47" clip-path="url(#clipPath2)" stroke="none"/>
    </g>
    <g fill="rgb(255,255,153)" text-rendering="geometricPrecision" shape-rendering="geometricPrecision" transform="matrix(1,0,0,1,-352,-47)" stroke="rgb(255,255,153)">
      <ellipse rx="25" ry="15" clip-path="url(#clipPath2)" cx="392.5136" cy="138.4515" stroke="none"/>
    </g>
    <g text-rendering="geometricPrecision" stroke-miterlimit="1.45" shape-rendering="geometricPrecision" transform="matrix(1,0,0,1,-352,-47)" stroke-linecap="butt">
      <ellipse rx="25" fill="none" ry="15" clip-path="url(#clipPath2)" cx="392.5136" cy="138.4515"/>
      <text x="388.5117" xml:space="preserve" y="143.1653" clip-path="url(#clipPath2)" font-family="sans-serif" stroke="none">A</text>
    </g>
    <g fill="rgb(255,255,153)" text-rendering="geometricPrecision" shape-rendering="geometricPrecision" transform="matrix(1,0,0,1,-352,-47)" stroke="rgb(255,255,153)">
      <ellipse rx="25" ry="15" clip-path="url(#clipPath2)" cx="424.6196" cy="237.2635" stroke="none"/>
    </g>
    <g text-rendering="geometricPrecision" stroke-miterlimit="1.45" shape-rendering="geometricPrecision" transform="matrix(1,0,0,1,-352,-47)" stroke-linecap="butt">
      <ellipse rx="25" fill="none" ry="15" clip-path="url(#clipPath2)" cx="424.6196" cy="237.2635"/>
      <text x="420.6177" xml:space="preserve" y="241.9774" clip-path="url(#clipPath2)" font-family="sans-serif" stroke="none">B</text>
    </g>
    <g fill="rgb(255,255,153)" text-rendering="geometricPrecision" shape-rendering="geometricPrecision" transform="matrix(1,0,0,1,-352,-47)" stroke="rgb(255,255,153)">
      <ellipse rx="25" ry="15" clip-path="url(#clipPath2)" cx="476.5682" cy="77.3822" stroke="none"/>
    </g>
    <g text-rendering="geometricPrecision" stroke-miterlimit="1.45" shape-rendering="geometricPrecision" transform="matrix(1,0,0,1,-352,-47)" stroke-linecap="butt">
      <ellipse rx="25" fill="none" ry="15" clip-path="url(#clipPath2)" cx="476.5682" cy="77.3822"/>
      <text x="472.2352" xml:space="preserve" y="82.0961" clip-path="url(#clipPath2)" font-family="sans-serif" stroke="none">C</text>
    </g>
    <g fill="rgb(255,255,153)" text-rendering="geometricPrecision" shape-rendering="geometricPrecision" transform="matrix(1,0,0,1,-352,-47)" stroke="rgb(255,255,153)">
      <ellipse rx="25" ry="15" clip-path="url(#clipPath2)" cx="560.6228" cy="138.4515" stroke="none"/>
    </g>
    <g text-rendering="geometricPrecision" stroke-miterlimit="1.45" shape-rendering="geometricPrecision" transform="matrix(1,0,0,1,-352,-47)" stroke-linecap="butt">
      <ellipse rx="25" fill="none" ry="15" clip-path="url(#clipPath2)" cx="560.6228" cy="138.4515"/>
      <text x="556.2898" xml:space="preserve" y="143.1653" clip-path="url(#clipPath2)" font-family="sans-serif" stroke="none">D</text>
    </g>
    <g fill="rgb(255,255,153)" text-rendering="geometricPrecision" shape-rendering="geometricPrecision" transform="matrix(1,0,0,1,-352,-47)" stroke="rgb(255,255,153)">
      <ellipse rx="25" ry="15" clip-path="url(#clipPath2)" cx="528.5168" cy="237.2635" stroke="none"/>
    </g>
    <g text-rendering="geometricPrecision" stroke-miterlimit="1.45" shape-rendering="geometricPrecision" transform="matrix(1,0,0,1,-352,-47)" stroke-linecap="butt">
      <ellipse rx="25" fill="none" ry="15" clip-path="url(#clipPath2)" cx="528.5168" cy="237.2635"/>
      <text x="524.5148" xml:space="preserve" y="241.9774" clip-path="url(#clipPath2)" font-family="sans-serif" stroke="none">E</text>
    </g>
    <g fill="rgb(255,255,153)" text-rendering="geometricPrecision" shape-rendering="geometricPrecision" transform="matrix(1,0,0,1,-352,-47)" stroke="rgb(255,255,153)">
      <circle r="15" clip-path="url(#clipPath2)" cx="625.5701" cy="158.0444" stroke="none"/>
    </g>
    <g text-rendering="geometricPrecision" stroke-miterlimit="1.45" shape-rendering="geometricPrecision" transform="matrix(1,0,0,1,-352,-47)" stroke-linecap="butt">
      <circle fill="none" r="15" clip-path="url(#clipPath2)" cx="625.5701" cy="158.0444"/>
      <text x="616.5643" xml:space="preserve" y="162.7583" clip-path="url(#clipPath2)" font-family="sans-serif" stroke="none">1/A</text>
    </g>
    <g fill="rgb(255,255,153)" text-rendering="geometricPrecision" shape-rendering="geometricPrecision" transform="matrix(1,0,0,1,-352,-47)" stroke="rgb(255,255,153)">
      <circle r="15" clip-path="url(#clipPath2)" cx="642.7237" cy="110.9154" stroke="none"/>
    </g>
    <g text-rendering="geometricPrecision" stroke-miterlimit="1.45" shape-rendering="geometricPrecision" transform="matrix(1,0,0,1,-352,-47)" stroke-linecap="butt">
      <circle fill="none" r="15" clip-path="url(#clipPath2)" cx="642.7237" cy="110.9154"/>
      <text x="633.7178" xml:space="preserve" y="115.6293" clip-path="url(#clipPath2)" font-family="sans-serif" stroke="none">2/B</text>
    </g>
    <g fill="rgb(255,255,153)" text-rendering="geometricPrecision" shape-rendering="geometricPrecision" transform="matrix(1,0,0,1,-352,-47)" stroke="rgb(255,255,153)">
      <circle r="15" clip-path="url(#clipPath2)" cx="684.3029" cy="82.8699" stroke="none"/>
    </g>
    <g text-rendering="geometricPrecision" stroke-miterlimit="1.45" shape-rendering="geometricPrecision" transform="matrix(1,0,0,1,-352,-47)" stroke-linecap="butt">
      <circle fill="none" r="15" clip-path="url(#clipPath2)" cx="684.3029" cy="82.8699"/>
      <text x="674.966" xml:space="preserve" y="87.5837" clip-path="url(#clipPath2)" font-family="sans-serif" stroke="none">3/C</text>
    </g>
    <g fill="rgb(255,255,153)" text-rendering="geometricPrecision" shape-rendering="geometricPrecision" transform="matrix(1,0,0,1,-352,-47)" stroke="rgb(255,255,153)">
      <circle r="15" clip-path="url(#clipPath2)" cx="734.4259" cy="84.6202" stroke="none"/>
    </g>
    <g text-rendering="geometricPrecision" stroke-miterlimit="1.45" shape-rendering="geometricPrecision" transform="matrix(1,0,0,1,-352,-47)" stroke-linecap="butt">
      <circle fill="none" r="15" clip-path="url(#clipPath2)" cx="734.4259" cy="84.6202"/>
      <text x="725.0891" xml:space="preserve" y="89.3341" clip-path="url(#clipPath2)" font-family="sans-serif" stroke="none">4/D</text>
    </g>
    <g fill="rgb(255,255,153)" text-rendering="geometricPrecision" shape-rendering="geometricPrecision" transform="matrix(1,0,0,1,-352,-47)" stroke="rgb(255,255,153)">
      <circle r="15" clip-path="url(#clipPath2)" cx="773.9475" cy="115.4979" stroke="none"/>
    </g>
    <g text-rendering="geometricPrecision" stroke-miterlimit="1.45" shape-rendering="geometricPrecision" transform="matrix(1,0,0,1,-352,-47)" stroke-linecap="butt">
      <circle fill="none" r="15" clip-path="url(#clipPath2)" cx="773.9475" cy="115.4979"/>
      <text x="764.9417" xml:space="preserve" y="120.2117" clip-path="url(#clipPath2)" font-family="sans-serif" stroke="none">5/E</text>
    </g>
    <g fill="rgb(255,255,153)" text-rendering="geometricPrecision" shape-rendering="geometricPrecision" transform="matrix(1,0,0,1,-352,-47)" stroke="rgb(255,255,153)">
      <circle r="15" clip-path="url(#clipPath2)" cx="787.7717" cy="163.7086" stroke="none"/>
    </g>
    <g text-rendering="geometricPrecision" stroke-miterlimit="1.45" shape-rendering="geometricPrecision" transform="matrix(1,0,0,1,-352,-47)" stroke-linecap="butt">
      <circle fill="none" r="15" clip-path="url(#clipPath2)" cx="787.7717" cy="163.7086"/>
      <text x="778.7659" xml:space="preserve" y="168.4225" clip-path="url(#clipPath2)" font-family="sans-serif" stroke="none">6/A</text>
    </g>
    <g fill="rgb(255,255,153)" text-rendering="geometricPrecision" shape-rendering="geometricPrecision" transform="matrix(1,0,0,1,-352,-47)" stroke="rgb(255,255,153)">
      <circle r="15" clip-path="url(#clipPath2)" cx="770.6182" cy="210.8376" stroke="none"/>
    </g>
    <g text-rendering="geometricPrecision" stroke-miterlimit="1.45" shape-rendering="geometricPrecision" transform="matrix(1,0,0,1,-352,-47)" stroke-linecap="butt">
      <circle fill="none" r="15" clip-path="url(#clipPath2)" cx="770.6182" cy="210.8376"/>
      <text x="761.2812" xml:space="preserve" y="215.5514" clip-path="url(#clipPath2)" font-family="sans-serif" stroke="none">7/C</text>
    </g>
    <g fill="rgb(255,255,153)" text-rendering="geometricPrecision" shape-rendering="geometricPrecision" transform="matrix(1,0,0,1,-352,-47)" stroke="rgb(255,255,153)">
      <circle r="15" clip-path="url(#clipPath2)" cx="729.039" cy="238.8831" stroke="none"/>
    </g>
    <g text-rendering="geometricPrecision" stroke-miterlimit="1.45" shape-rendering="geometricPrecision" transform="matrix(1,0,0,1,-352,-47)" stroke-linecap="butt">
      <circle fill="none" r="15" clip-path="url(#clipPath2)" cx="729.039" cy="238.8831"/>
      <text x="720.0331" xml:space="preserve" y="243.597" clip-path="url(#clipPath2)" font-family="sans-serif" stroke="none">8/E</text>
    </g>
    <g fill="rgb(255,255,153)" text-rendering="geometricPrecision" shape-rendering="geometricPrecision" transform="matrix(1,0,0,1,-352,-47)" stroke="rgb(255,255,153)">
      <circle r="15" clip-path="url(#clipPath2)" cx="678.9159" cy="237.1328" stroke="none"/>
    </g>
    <g text-rendering="geometricPrecision" stroke-miterlimit="1.45" shape-rendering="geometricPrecision" transform="matrix(1,0,0,1,-352,-47)" stroke-linecap="butt">
      <circle fill="none" r="15" clip-path="url(#clipPath2)" cx="678.9159" cy="237.1328"/>
      <text x="669.91" xml:space="preserve" y="241.8466" clip-path="url(#clipPath2)" font-family="sans-serif" stroke="none">9/B</text>
    </g>
    <g fill="rgb(255,255,153)" text-rendering="geometricPrecision" shape-rendering="geometricPrecision" transform="matrix(1,0,0,1,-352,-47)" stroke="rgb(255,255,153)">
      <circle r="15" clip-path="url(#clipPath2)" cx="639.3943" cy="206.2551" stroke="none"/>
    </g>
    <g text-rendering="geometricPrecision" stroke-miterlimit="1.45" shape-rendering="geometricPrecision" transform="matrix(1,0,0,1,-352,-47)" stroke-linecap="butt">
      <circle fill="none" r="15" clip-path="url(#clipPath2)" cx="639.3943" cy="206.2551"/>
      <text x="626.7205" xml:space="preserve" y="210.969" clip-path="url(#clipPath2)" font-family="sans-serif" stroke="none">10/D</text>
    </g>
    <g fill="rgb(255,255,153)" text-rendering="geometricPrecision" shape-rendering="geometricPrecision" transform="matrix(1,0,0,1,-352,-47)" stroke="rgb(255,255,153)">
      <ellipse rx="25" ry="15" clip-path="url(#clipPath2)" cx="847.7717" cy="145.6894" stroke="none"/>
    </g>
    <g text-rendering="geometricPrecision" stroke-miterlimit="1.45" shape-rendering="geometricPrecision" transform="matrix(1,0,0,1,-352,-47)" stroke-linecap="butt">
      <ellipse rx="25" fill="none" ry="15" clip-path="url(#clipPath2)" cx="847.7717" cy="145.6894"/>
      <text x="831.4329" xml:space="preserve" y="150.4033" clip-path="url(#clipPath2)" font-family="sans-serif" stroke="none">A(1,6)</text>
    </g>
    <g fill="rgb(255,255,153)" text-rendering="geometricPrecision" shape-rendering="geometricPrecision" transform="matrix(1,0,0,1,-352,-47)" stroke="rgb(255,255,153)">
      <ellipse rx="25" ry="15" clip-path="url(#clipPath2)" cx="879.8777" cy="244.5015" stroke="none"/>
    </g>
    <g text-rendering="geometricPrecision" stroke-miterlimit="1.45" shape-rendering="geometricPrecision" transform="matrix(1,0,0,1,-352,-47)" stroke-linecap="butt">
      <ellipse rx="25" fill="none" ry="15" clip-path="url(#clipPath2)" cx="879.8777" cy="244.5015"/>
      <text x="863.5388" xml:space="preserve" y="249.2154" clip-path="url(#clipPath2)" font-family="sans-serif" stroke="none">B(2,9)</text>
    </g>
    <g fill="rgb(255,255,153)" text-rendering="geometricPrecision" shape-rendering="geometricPrecision" transform="matrix(1,0,0,1,-352,-47)" stroke="rgb(255,255,153)">
      <ellipse rx="25" ry="15" clip-path="url(#clipPath2)" cx="931.8263" cy="84.6202" stroke="none"/>
    </g>
    <g text-rendering="geometricPrecision" stroke-miterlimit="1.45" shape-rendering="geometricPrecision" transform="matrix(1,0,0,1,-352,-47)" stroke-linecap="butt">
      <ellipse rx="25" fill="none" ry="15" clip-path="url(#clipPath2)" cx="931.8263" cy="84.6202"/>
      <text x="915.1564" xml:space="preserve" y="89.3341" clip-path="url(#clipPath2)" font-family="sans-serif" stroke="none">C(3,7)</text>
    </g>
    <g fill="rgb(255,255,153)" text-rendering="geometricPrecision" shape-rendering="geometricPrecision" transform="matrix(1,0,0,1,-352,-47)" stroke="rgb(255,255,153)">
      <ellipse rx="25" ry="15" clip-path="url(#clipPath2)" cx="1015.8809" cy="145.6894" stroke="none"/>
    </g>
    <g text-rendering="geometricPrecision" stroke-miterlimit="1.45" shape-rendering="geometricPrecision" transform="matrix(1,0,0,1,-352,-47)" stroke-linecap="butt">
      <ellipse rx="25" fill="none" ry="15" clip-path="url(#clipPath2)" cx="1015.8809" cy="145.6894"/>
      <text x="995.874" xml:space="preserve" y="150.4033" clip-path="url(#clipPath2)" font-family="sans-serif" stroke="none">D(4,10)</text>
    </g>
    <g fill="rgb(255,255,153)" text-rendering="geometricPrecision" shape-rendering="geometricPrecision" transform="matrix(1,0,0,1,-352,-47)" stroke="rgb(255,255,153)">
      <ellipse rx="25" ry="15" clip-path="url(#clipPath2)" cx="983.7749" cy="244.5015" stroke="none"/>
    </g>
    <g text-rendering="geometricPrecision" stroke-miterlimit="1.45" shape-rendering="geometricPrecision" transform="matrix(1,0,0,1,-352,-47)" stroke-linecap="butt">
      <ellipse rx="25" fill="none" ry="15" clip-path="url(#clipPath2)" cx="983.7749" cy="244.5015"/>
      <text x="967.436" xml:space="preserve" y="249.2154" clip-path="url(#clipPath2)" font-family="sans-serif" stroke="none">E(5,8)</text>
      <path fill="none" d="M397.2974 153.1743 L419.8359 222.5407" stroke-width="2" clip-path="url(#clipPath2)"/>
      <path fill="none" d="M408.4327 126.8856 L460.6491 88.9481" stroke-width="2" clip-path="url(#clipPath2)"/>
      <path fill="none" d="M429.4034 222.5407 L471.7845 92.1051" stroke-width="2" clip-path="url(#clipPath2)"/>
      <path fill="none" d="M417.5136 138.4515 L535.6228 138.4515" stroke-width="2" clip-path="url(#clipPath2)"/>
      <path fill="none" d="M440.5387 225.6977 L544.7037 150.0173" stroke-width="2" clip-path="url(#clipPath2)"/>
      <path fill="none" d="M492.4873 88.9481 L544.7037 126.8856" stroke-width="2" clip-path="url(#clipPath2)"/>
      <path fill="none" d="M408.4327 150.0173 L512.5977 225.6977" stroke-width="2" clip-path="url(#clipPath2)"/>
      <path fill="none" d="M449.6196 237.2635 L503.5168 237.2635" stroke-width="2" clip-path="url(#clipPath2)"/>
      <path fill="none" d="M481.3519 92.1051 L523.733 222.5407" stroke-width="2" clip-path="url(#clipPath2)"/>
      <path fill="none" d="M555.8391 153.1743 L533.3005 222.5407" stroke-width="2" clip-path="url(#clipPath2)"/>
      <path fill="none" d="M630.7004 143.949 L634.5152 133.468" stroke-width="2" clip-path="url(#clipPath2)" stroke="maroon"/>
      <path fill="maroon" d="M637.5934 125.0108 L627.6903 135.7728 L634.1304 134.5252 L638.2619 139.6205 Z" stroke-width="2" clip-path="url(#clipPath2)" stroke="none"/>
      <path fill="none" d="M655.1592 102.5275 L664.406 96.2905" stroke-width="2" clip-path="url(#clipPath2)" stroke="navy"/>
      <path fill="navy" d="M671.8673 91.2578 L657.5298 94.1436 L663.4733 96.9196 L663.8208 103.4702 Z" stroke-width="2" clip-path="url(#clipPath2)" stroke="none"/>
      <path fill="none" d="M699.2938 83.3934 L710.4406 83.7826" stroke-width="2" clip-path="url(#clipPath2)" stroke="maroon"/>
      <path fill="maroon" d="M719.4351 84.0967 L706.1396 78.004 L709.3162 83.7434 L705.7469 89.2472 Z" stroke-width="2" clip-path="url(#clipPath2)" stroke="none"/>
      <path fill="none" d="M746.2461 93.8551 L755.0353 100.722" stroke-width="2" clip-path="url(#clipPath2)" stroke="navy"/>
      <path fill="navy" d="M762.1274 106.2629 L754.9523 93.5189 L754.1487 100.0294 L748.0261 102.3841 Z" stroke-width="2" clip-path="url(#clipPath2)" stroke="none"/>
      <path fill="none" d="M778.0821 129.9168 L781.1564 140.6383" stroke-width="2" clip-path="url(#clipPath2)" stroke="maroon"/>
      <path fill="maroon" d="M783.6371 149.2897 L785.3232 134.7622 L780.8463 139.5569 L774.509 137.8631 Z" stroke-width="2" clip-path="url(#clipPath2)" stroke="none"/>
      <path fill="none" d="M782.6414 177.804 L778.8267 188.2849" stroke-width="2" clip-path="url(#clipPath2)" stroke="navy"/>
      <path fill="navy" d="M775.7485 196.7422 L785.6516 185.9802 L779.2114 187.2278 L775.08 182.1324 Z" stroke-width="2" clip-path="url(#clipPath2)" stroke="none"/>
      <path fill="none" d="M758.1826 219.2254 L748.9359 225.4625" stroke-width="2" clip-path="url(#clipPath2)" stroke="maroon"/>
      <path fill="maroon" d="M741.4745 230.4952 L755.812 227.6094 L749.8685 224.8334 L749.5211 218.2828 Z" stroke-width="2" clip-path="url(#clipPath2)" stroke="none"/>
      <path fill="none" d="M714.0481 238.3596 L702.9013 237.9703" stroke-width="2" clip-path="url(#clipPath2)" stroke="navy"/>
      <path fill="navy" d="M693.9068 237.6562 L707.2023 243.7489 L704.0256 238.0096 L707.5949 232.5058 Z" stroke-width="2" clip-path="url(#clipPath2)" stroke="none"/>
      <path fill="none" d="M667.0958 227.8978 L658.3066 221.031" stroke-width="2" clip-path="url(#clipPath2)" stroke="maroon"/>
      <path fill="maroon" d="M651.2145 215.49 L658.3895 228.234 L659.1931 221.7236 L665.3157 219.3689 Z" stroke-width="2" clip-path="url(#clipPath2)" stroke="none"/>
      <path fill="none" d="M635.2598 191.8362 L632.1854 181.1147" stroke-width="2" clip-path="url(#clipPath2)" stroke="navy"/>
      <path fill="navy" d="M629.7047 172.4633 L628.0187 186.9908 L632.4955 182.1961 L638.8329 183.8899 Z" stroke-width="2" clip-path="url(#clipPath2)" stroke="none"/>
      <path fill="none" d="M852.5555 160.4123 L872.3128 221.2192" stroke-width="2" clip-path="url(#clipPath2)" stroke="maroon"/>
      <path fill="maroon" d="M875.094 229.7787 L876.2719 215.2012 L871.9651 220.1492 L865.5725 218.6777 Z" stroke-width="2" clip-path="url(#clipPath2)" stroke="none"/>
      <path fill="none" d="M863.6908 134.1236 L908.626 101.4762" stroke-width="2" clip-path="url(#clipPath2)" stroke="navy"/>
      <path fill="navy" d="M915.9072 96.1861 L901.6792 99.5705 L907.7159 102.1374 L908.2917 108.6719 Z" stroke-width="2" clip-path="url(#clipPath2)" stroke="none"/>
      <path fill="none" d="M884.6614 229.7787 L924.2614 107.9026" stroke-width="2" clip-path="url(#clipPath2)" stroke="navy"/>
      <path fill="navy" d="M927.0425 99.343 L917.5212 110.4441 L923.9138 108.9725 L928.2205 113.9205 Z" stroke-width="2" clip-path="url(#clipPath2)" stroke="none"/>
      <path fill="none" d="M881.7717 145.6894 L990.8809 145.6894" stroke-width="2" clip-path="url(#clipPath2)" stroke="navy"/>
      <path fill="navy" d="M872.7717 145.6894 L886.2717 151.3144 L882.8967 145.6894 L886.2717 140.0644 Z" stroke-width="2" clip-path="url(#clipPath2)" stroke="none"/>
      <path fill="none" d="M895.7968 232.9356 L992.6807 162.5454" stroke-width="2" clip-path="url(#clipPath2)" stroke="maroon"/>
      <path fill="maroon" d="M999.9618 157.2553 L985.7338 160.6397 L991.7705 163.2066 L992.3464 169.7411 Z" stroke-width="2" clip-path="url(#clipPath2)" stroke="none"/>
      <path fill="none" d="M947.7454 96.1861 L992.6807 128.8335" stroke-width="2" clip-path="url(#clipPath2)" stroke="maroon"/>
      <path fill="maroon" d="M999.9618 134.1236 L992.3464 121.6377 L991.7705 128.1722 L985.7338 130.7392 Z" stroke-width="2" clip-path="url(#clipPath2)" stroke="none"/>
      <path fill="none" d="M870.9719 162.5454 L967.8558 232.9356" stroke-width="2" clip-path="url(#clipPath2)" stroke="maroon"/>
      <path fill="maroon" d="M863.6908 157.2553 L871.3062 169.7411 L871.8821 163.2066 L877.9188 160.6397 Z" stroke-width="2" clip-path="url(#clipPath2)" stroke="none"/>
      <path fill="none" d="M913.8777 244.5015 L958.7749 244.5015" stroke-width="2" clip-path="url(#clipPath2)" stroke="navy"/>
      <path fill="navy" d="M904.8777 244.5015 L918.3777 250.1265 L915.0027 244.5015 L918.3777 238.8765 Z" stroke-width="2" clip-path="url(#clipPath2)" stroke="none"/>
      <path fill="none" d="M936.61 99.343 L976.21 221.2192" stroke-width="2" clip-path="url(#clipPath2)" stroke="maroon"/>
      <path fill="maroon" d="M978.9911 229.7787 L980.1691 215.2012 L975.8624 220.1492 L969.4698 218.6776 Z" stroke-width="2" clip-path="url(#clipPath2)" stroke="none"/>
      <path fill="none" d="M1011.0971 160.4123 L991.3398 221.2192" stroke-width="2" clip-path="url(#clipPath2)" stroke="navy"/>
      <path fill="navy" d="M988.5586 229.7787 L998.0801 218.6777 L991.6874 220.1492 L987.3807 215.2012 Z" stroke-width="2" clip-path="url(#clipPath2)" stroke="none"/>
    </g>
  </g>
</svg>
